<?xml version="1.0" encoding="UTF-8"?>
<svg id="Layer_1" xmlns="http://www.w3.org/2000/svg" viewBox="0 0 250.79 69.37">
  <defs>
    <style>
      .cls-1 {
        fill: #fff;
      }

      .cls-2 {
        fill: #00ab53;
      }
    </style>
  </defs>
  <g>
    <path class="cls-2" d="M92.95,14.92l.98-.06v-4.87l-10.38.06-6.9-.06v1.11c2.56.09,3.16.17,3.16,2.46v13.11c0,2.76-.36,3.16-3.16,3.16v1.12l7.57-.06,9.82.06c.35-1.61.98-3.67,1.46-4.99l-1.05-.19c-1.26,3.07-2.83,3.58-6.01,3.72h-1.75c-3.15,0-3.26-.69-3.26-3.93v-4.69h3.39c2.58,0,3.45.17,3.45,2.83h1.02l-.07-2.02-.07-1.43c0-1.02.08-2.97.15-3.63h-1.01c-.26,2.13-.44,2.69-2.64,2.69h-4.22v-7.88h4.34c3.39,0,4.73.9,5.19,3.48Z"/>
    <path class="cls-2" d="M96.7,18.28c1.27.29,1.87.94,1.87,2.02v8.57c0,.86-.4.89-1.38.89h-.76v1.19l3.67-.07,3.6.07v-1.19h-.76c-1,0-1.44-.04-1.44-.89v-9.47c1.13-.74,2.65-1.32,3.58-1.32,1.52,0,2.8.6,2.8,2.73v8.07c0,.86-.4.89-1.38.89h-.76v1.19l3.67-.07,3.6.07v-1.19h-.76c-1,0-1.44-.04-1.44-.89v-8.34c0-3.22-1.65-4.7-3.89-4.7-1.97,0-3.52,1.04-5.42,2.27v-1.92c0-.4-.31-.37-.43-.31-1.19.51-3.1,1.19-4.38,1.57v.86Z"/>
    <path class="cls-2" d="M224.61,18.28c1.28.29,1.88.94,1.88,2.02v8.57c0,.86-.4.89-1.38.89h-.75v1.19l3.67-.07,3.6.07v-1.19h-.76c-1,0-1.44-.04-1.44-.89v-9.47c1.13-.74,2.65-1.32,3.58-1.32,1.52,0,2.8.6,2.8,2.73v8.07c0,.86-.4.89-1.37.89h-.76v1.19l3.67-.07,3.6.07v-1.19h-.76c-1,0-1.45-.04-1.45-.89v-8.34c0-3.22-1.65-4.7-3.89-4.7-1.97,0-3.52,1.04-5.42,2.27v-1.92c0-.4-.31-.37-.43-.31-1.19.51-3.1,1.19-4.38,1.57v.86Z"/>
    <path class="cls-2" d="M166.55,18.28c1.27.29,1.87.94,1.87,2.02v8.57c0,.86-.4.89-1.38.89h-.76v1.19l3.67-.07,3.61.07v-1.19h-.76c-1,0-1.44-.04-1.44-.89v-9.47c1.13-.74,2.65-1.32,3.58-1.32,1.52,0,2.8.6,2.8,2.73v8.07c0,.86-.4.89-1.38.89h-.76v1.19l3.67-.07,3.6.07v-1.19h-.76c-1,0-1.44-.04-1.44-.89v-8.34c0-3.22-1.65-4.7-3.89-4.7-1.97,0-3.52,1.04-5.42,2.27v-1.92c0-.4-.31-.37-.43-.31-1.19.51-3.1,1.19-4.38,1.57v.86Z"/>
    <path class="cls-2" d="M128.28,17.49v-1.19l-3.19.07-2.68-.07v1.18c.53,0,.92.03,1.2.09.41.09.59.41.59.86s-.23,1.22-.64,2.2l-2.7,6.24-2.77-6.94c-.56-1.33-.53-1.96.07-2.29.17-.09.77-.14,1.31-.14v-1.19l-3.8.07-3.65-.07v1.19c1.23,0,1.71,0,2.68,2.38l4.77,11.56h1.12l5.04-11.72c.59-1.38,1.09-2.22,2.63-2.22Z"/>
    <g>
      <path class="cls-2" d="M129.33,17.19v.75c.92.27,1.68.9,1.68,2.16v8.77c0,.86-.4.89-1.38.89h-.79v1.19l3.7-.07,3.57.07v-1.19h-.73c-1,0-1.44-.04-1.44-.89v-12.42c0-.64-.35-.69-.81-.48-.78.35-2.58.89-3.8,1.23Z"/>
      <path class="cls-2" d="M130.72,11.25c0,.94.84,1.79,1.76,1.79s1.76-.82,1.76-1.79-.79-1.73-1.76-1.73c-.92,0-1.76.82-1.76,1.73Z"/>
    </g>
    <path class="cls-2" d="M137.98,18.44c1.11.29,1.68.72,1.68,1.96v8.47c0,.86-.4.89-1.38.89h-1.05v1.19l4.03-.07,3.58.05,1.12.02v-1.19h-1.98c-.98,0-1.38-.03-1.38-.89v-7.6c0-1.86,1.74-2.51,2.19-2.51.53,0,.77.18,1.04.37.27.2.55.4,1.1.4.95,0,1.7-.8,1.7-1.82,0-1.3-1.18-1.89-2.02-1.89-1.37,0-3.04,1.2-4.03,2.71v-2.26c0-.5-.36-.54-.77-.31-.7.39-2.69,1.36-3.81,1.78v.71Z"/>
    <path class="cls-2" d="M149.28,23.69c0,4.9,3.21,7.74,7.85,7.74,4.2,0,7.77-3.12,7.77-7.87s-3.14-7.74-7.87-7.74c-4.25,0-7.74,3.04-7.74,7.87ZM152.61,23.37c0-2.97,1.3-6.2,4.44-6.2s4.52,3.54,4.52,6.72c0,2.97-1.3,6.2-4.47,6.2s-4.49-3.54-4.49-6.72Z"/>
    <path class="cls-2" d="M197.93,18.22c-.51-1.54-1.73-2.4-3.5-2.4-2.25,0-3.7,1.04-5.38,2.24,0,0-.03.02-.04.03v-1.63c0-.56-.45-.8-1.07-.44-.15.08-1.99.72-3.55,1.18v.75c.99.29,1.68.9,1.68,2.16v8.77c0,.86-.4.89-1.38.89h-.86v1.2l3.77-.07,3.61.07v-1.19h-.76c-1,0-1.44-.04-1.44-.89v-9.48c.89-.61,2.54-1.47,3.64-1.47,1.85,0,2.64,1.14,2.64,3.8v7.15c0,.86-.4.89-1.38.89h-.76v1.19l3.67-.07,3.63.07v-1.19h-.76c-.99,0-1.47-.04-1.47-.89v-9.48c.89-.61,2.54-1.47,3.64-1.47,1.85,0,2.64,1.14,2.64,3.8v7.15c0,.86-.4.89-1.38.89h-.76v1.19l3.67-.07,3.51.07v-1.19h-.66c-1,0-1.44-.04-1.44-.89v-8.31c0-2.96-1.5-4.73-4.02-4.73-2.03,0-4.15,1.38-5.49,2.4Z"/>
    <path class="cls-2" d="M222.48,22.02l.42-.54c0-3.96-2.84-5.67-5.62-5.67s-6.71,2.23-6.71,8.39c0,2.5,1.33,7.22,6.35,7.22,2.94,0,4.82-1.99,6.12-3.72l-.71-.68c-1.46,1.46-2.77,2.12-4.24,2.12-2.41,0-4.38-2.33-4.58-5.43-.03-.55-.05-.94-.05-1.23,0-.21.02-.34.03-.46h8.98ZM213.66,20.63c.43-2.14,1.7-3.43,3.49-3.43,1.6,0,2.64,1.1,2.64,2.8,0,.38-.23.63-.73.63h-5.4Z"/>
    <path class="cls-2" d="M127.9,46.19c1.27.29,1.87.93,1.87,2.02v8.57c0,.86-.4.89-1.38.89h-.76v1.19l3.67-.07,3.6.07v-1.19h-.76c-1,0-1.44-.04-1.44-.89v-9.47c1.13-.74,2.65-1.32,3.58-1.32,1.52,0,2.8.6,2.8,2.73v8.07c0,.86-.4.89-1.38.89h-.76v1.19l3.67-.07,3.61.07v-1.19h-.76c-1,0-1.44-.04-1.44-.89v-8.34c0-3.22-1.65-4.7-3.89-4.7-1.97,0-3.52,1.04-5.42,2.27v-1.92c0-.4-.31-.37-.43-.32-1.19.52-3.1,1.19-4.38,1.57v.86Z"/>
    <path class="cls-2" d="M125.93,49.93l.43-.54c0-3.95-2.84-5.67-5.62-5.67s-6.71,2.23-6.71,8.39c0,2.5,1.33,7.22,6.35,7.22,2.94,0,4.81-1.99,6.12-3.72l-.72-.68c-1.46,1.46-2.77,2.12-4.24,2.12-2.41,0-4.38-2.34-4.58-5.43-.03-.55-.05-.94-.05-1.23,0-.22.02-.34.04-.46h8.98ZM117.12,48.54c.43-2.14,1.71-3.43,3.49-3.43,1.6,0,2.64,1.1,2.64,2.8,0,.38-.23.63-.73.63h-5.39Z"/>
    <path class="cls-2" d="M240.98,17.31v.78h2.13v10.16c0,2.05,1.15,3.18,3.24,3.18,1.51,0,2.96-.74,4.43-2.25l-.72-.74c-.74.64-1.34.89-2.15.89-.44,0-1.86-.18-1.86-2.54v-8.7h4.67v-1.79h-4.67v-3.26h-.71c-1.47,2.34-3.09,3.5-4.36,4.26Z"/>
    <path class="cls-2" d="M86.84,37.52c-.44.62-1.7,1.25-2.13,1.4.31,1.07.12,1.74-.51,3.3-.01.03-4.63,11.16-4.63,11.16-.32.81-.65,1.64-1.05,2.42-.81,1.56-1.29,1.88-3.12,1.98v1.08l4.08-.06,4.13.06v-1.1s-1.19.02-1.19.02c-1.19-.05-1.86-.16-1.86-1.21,0-.88.5-2.27.9-3.38l.69-1.91h7.64l1.63,4.08c.24.55.52,1.33.49,1.61-.06.57-.56.78-1.67.78h-.78v1.1l5.07-.06,3.88.06v-1.1c-.83,0-1.84-.03-2.47-.72-.42-.46-1.05-2.11-1.53-3.3l-6.8-16.21h-.78ZM85.8,41.81l3.35,7.94h-6.39l3.04-7.94Z"/>
    <path class="cls-2" d="M99.94,54.55c-.26.34-.41.92-.41,1.29,0,1.42,1.25,2.34,2.55,2.82-1.83.42-3.49,1.66-3.49,3.78,0,2.25,2.16,3.8,6.29,3.8,6.83,0,8.74-4.3,8.74-6.23,0-2.35-1.52-3.6-4.6-3.6-.81,0-3.42,0-4.46-.03-2.09-.07-2.09-.99-2.09-1.32,0-.69.42-1.08.85-1.46.6.12,1.23.18,1.73.18,4.04,0,6.16-2.59,6.16-5.15,0-.82-.28-1.62-.72-2.27.5.02,3.08.12,3.08.12v-1.94c-.87.13-1.51.19-2.05.19-1.21,0-2.16-.28-2.99-.51-.98-.28-2.16-.49-2.99-.49-3.78,0-6.22,2.02-6.22,5.15,0,1.88.92,3.22,2.91,4.31l-2.27,1.35ZM101.3,61.72c0-2.87,3.13-2.87,5.19-2.87,2.91,0,4.39.82,4.39,2.45,0,2.91-3.96,3.54-5.49,3.54-1.89,0-4.09-.82-4.09-3.12ZM102.43,48.43c0-1.69.99-3.51,2.83-3.51,2.07,0,3,2.04,3,4.06,0,1.75-.78,3.61-2.96,3.61-1.97,0-2.87-1.74-2.87-4.16Z"/>
    <path class="cls-2" d="M157.34,55.1c-1.3,1.01-2.35,1.55-3.91,1.55-3.84,0-5.29-2.49-5.3-6.19,0-2.5,1.82-5.17,4.11-5.15,1.69.01,2.18.71,2.75,1.47.38.51.74.99,1.35.99.9,0,1.36-.78,1.34-1.56-.02-1.44-1.85-2.37-4.59-2.4-4.49-.04-7.87,3.56-7.87,8.45,0,4.03,2.92,7,6.56,7,2.73,0,4.91-1.63,6.33-3.35l-.78-.81Z"/>
    <path class="cls-2" d="M165.2,58.16c-.11.28-.78,2.02-2.15,4.95-.4-.3-.74-.41-1.25-.41-.99,0-1.73.95-1.73,1.79,0,.98.75,1.73,1.76,1.73s1.73-.55,2.23-1.72l7.31-17.14c.58-1.35,1.19-1.99,2.57-1.96v-1.2l-2.6.07-3.19-.07-.02,1.19c.46,0,.84.02,1.12.1.47.14.69.44.69,1.08,0,.19-.13.61-.33,1.17l-2.71,6.62-2.67-6.71c-.27-.67-.51-1.31-.47-1.58.05-.34.25-.51.64-.61.28-.07.66-.1,1.14-.1v-1.18s-3.09.07-3.09.07l-3.92-.07v1.21c.22,0,.54,0,.77.05.58.14,1.04.45,1.29,1.04l4.62,11.65Z"/>
  </g>
  <g>
    <circle class="cls-1" cx="34.69" cy="34.69" r="34.69" transform="translate(-1.31 1.36) rotate(-2.2)"/>
    <path class="cls-2" d="M26.47,68.38c2.64.64,5.39.99,8.22.99,3.18,0,6.25-.44,9.17-1.23-2.63-6.28-8.63-17.65-8.63-17.65,0,0-6.22,11.7-8.75,17.89ZM34.69,0C15.53,0,0,15.53,0,34.69c0,14.68,9.13,27.23,22.02,32.29,2.94-7.94,6.46-15.86,8.48-20.16-.17-2.89-.52-5.52-.87-7.57-7.97-1.97-13.62-7.41-13.62-7.41l2.27-3.35s7.72,6.21,16.92,6.21,16.92-6.21,16.92-6.21l2.27,3.35s-5.66,5.45-13.64,7.42c-.34,2.02-.69,4.6-.86,7.43,1.97,4.2,5.45,12.05,8.38,19.93,12.41-5.28,21.11-17.59,21.11-31.92C69.37,15.53,53.84,0,34.69,0Z"/>
    <g>
      <path class="cls-1" d="M27.05,14.12c-.95-1.5-2.62-2.51-4.53-2.54-3.03-.05-5.52,2.36-5.57,5.38,0,.3.01.6.05.88,1.68.43,4.46,2.27,4.61,5.96-1.52-2.01-2.88-2.63-5.18-2.84-3.29-.29-6.1,2.59-6.16,5.81-.02,1.25.35,2.41,1,3.37-1.52,1.35-2.49,3.31-2.53,5.5-.07,4.16,2.08,7.13,5.66,7.77,1.97.35,5.22-.11,7.11-2.23-1.71,3.58-4.77,4.98-7.87,5.01-5.11.06-9.12-4.49-9.03-9.59.05-2.75,1.29-5.21,3.23-6.87-.65-1.2-1.01-2.59-.99-4.05.07-4.08,3.11-7.42,7.02-7.99-.02-.26-.03-.53-.02-.79.08-4.73,3.98-8.49,8.71-8.41,1.53.03,2.96.45,4.18,1.17,1.46-1.5,3.51-2.41,5.77-2.37,3.87.07,7.03,2.91,7.63,6.59-1.48-1.88-3.75-3.1-6.33-3.15-2.78-.05-5.26,1.29-6.79,3.37Z"/>
      <path class="cls-1" d="M39.49,29.26c.11-.33.17-.68.17-1.05,0-1.79-1.38-3.25-3.09-3.25s-3.09,1.46-3.09,3.25,1.38,3.25,3.09,3.25c.1,0,.2,0,.3-.02-.24.08-.49.15-.75.2-2.72.51-5.32-1.41-5.8-4.28-.48-2.87,1.34-5.6,4.07-6.11,2.72-.51,5.32,1.41,5.8,4.28.23,1.34-.05,2.66-.69,3.72Z"/>
      <path class="cls-1" d="M60.91,36.24c.94-2.45.8-5.29-.61-7.75-1.53-2.65-4.19-4.23-7.02-4.48.47-1.96.63-3.77-.17-5.71-1.39-3.38-5.98-4.96-9.1-3.71,4.26-3.02,9.82-2.43,12.2,1.9.73,1.32,1.08,3.16,1.1,4.73,2.24.53,4.26,1.95,5.5,4.1,2.12,3.68,1.24,8.27-1.9,10.93Z"/>
    </g>
  </g>
</svg>