<?xml version="1.0" encoding="UTF-8"?>
<svg id="Layer_1" data-name="Layer 1" xmlns="http://www.w3.org/2000/svg" viewBox="0 0 283.46 85.04">
  <defs>
    <style>
      .cls-1 {
        fill: #0d2d6c;
      }

      .cls-1, .cls-2 {
        stroke-width: 0px;
      }

      .cls-2 {
        fill: #00aa4f;
      }
    </style>
  </defs>
  <path class="cls-1" d="M11.04,51.15v-23.5h6.21l4.88,8.61c1.4,2.48,2.79,5.4,3.84,8.06h.11c-.35-3.1-.45-6.28-.45-9.83v-6.84h4.88v23.5h-5.58l-5.02-9.07c-1.39-2.51-2.93-5.54-4.08-8.3l-.11.03c.14,3.1.21,6.42.21,10.25v7.08h-4.88Z"/>
  <rect class="cls-1" x="33.92" y="27.64" width="5.33" height="23.5"/>
  <path class="cls-1" d="M80.35,41.14l-1.46-4.99c-.42-1.4-.84-3.14-1.19-4.53h-.07c-.35,1.39-.7,3.17-1.08,4.53l-1.39,4.99h5.2ZM74.39,45.11l-1.67,6.03h-5.51l7.18-23.5h6.97l7.29,23.5h-5.72l-1.81-6.03h-6.73Z"/>
  <polygon class="cls-1" points="58.81 27.65 59.49 28.65 64.43 28.65 64.48 28.64 64.46 28.65 64.85 28.65 64.85 27.65 58.81 27.65"/>
  <polygon class="cls-1" points="59.4 33.24 59.11 32.24 53.69 32.24 53.69 33.24 59.4 33.24"/>
  <polygon class="cls-1" points="62.94 29.14 59.82 29.14 60.39 29.98 62.94 29.14"/>
  <polygon class="cls-1" points="64.88 32.24 60.82 32.24 59.81 33.24 64.88 33.24 64.88 32.24"/>
  <polygon class="cls-1" points="64.88 30.7 62.39 30.7 61.37 31.7 64.88 31.7 64.88 30.7"/>
  <polyline class="cls-1" points="64.88 34.77 64.88 33.77 57.19 33.77 57.19 34.77"/>
  <polygon class="cls-1" points="62.72 29.76 60.16 30.7 58.54 28.24 59.71 32.44 62.72 29.76"/>
  <polygon class="cls-1" points="62.95 30.15 64.87 30.15 64.87 29.14 63.97 29.14 62.95 30.15"/>
  <polygon class="cls-1" points="42.79 27.65 42.79 28.65 58.1 28.65 57.87 27.84 57.87 27.65 42.79 27.65"/>
  <polygon class="cls-1" points="42.82 30.7 42.82 31.7 58.96 31.7 58.68 30.7 42.82 30.7"/>
  <polygon class="cls-1" points="58.24 29.14 42.8 29.14 42.8 30.15 58.52 30.15 58.24 29.14"/>
  <g>
    <path class="cls-1" d="M44.54,45.19c1.04,0,2.09.63,3.53.63s2.19-.63,3.66-.63,2.18.62,3.83.62,2.83-.57,3.89-.57,2.79.69,3.83.69,1.58-.18,1.58-.18v-1.03s-.56.23-1.61.23-2.74-.72-3.87-.72-3.05.6-3.85.6-2.77-.58-3.86-.58-2.44.62-3.54.62-2.87-.6-3.48-.6-1.84.22-1.84.22l.02.96s.68-.24,1.72-.24"/>
    <path class="cls-1" d="M59.38,45.96c-1.13,0-3.05.53-3.85.53s-2.77-.51-3.86-.51-2.44.62-3.54.62-2.86-.6-3.48-.6-1.84.23-1.84.23v.95s.69-.23,1.73-.23,2.1.63,3.53.63,2.19-.63,3.66-.63,2.19.62,3.83.62,2.83-.57,3.89-.57,2.79.69,3.83.69,1.58-.18,1.58-.18v-1.04s-.56.22-1.61.22-2.74-.72-3.87-.72"/>
    <path class="cls-1" d="M59.38,47.7c-1.13,0-3.05.53-3.85.53s-2.77-.51-3.86-.51-2.44.62-3.54.62-2.86-.6-3.48-.6-1.84.23-1.84.23v.95s.69-.23,1.74-.23,2.09.63,3.53.63,2.19-.63,3.66-.63,2.19.61,3.83.61,2.83-.57,3.89-.57,2.79.69,3.83.69,1.58-.18,1.58-.18v-1.03s-.56.22-1.61.22-2.74-.72-3.87-.72"/>
    <path class="cls-1" d="M59.38,49.41c-1.13,0-3.05.53-3.84.53s-2.77-.51-3.86-.51-2.44.61-3.54.61-2.86-.6-3.48-.6-1.84.22-1.84.22v.95s.69-.23,1.73-.23,2.1.63,3.53.63,2.19-.63,3.66-.63,2.19.61,3.83.61,2.83-.57,3.89-.57,2.79.69,3.83.69,1.58-.18,1.58-.18v-1.03s-.56.22-1.61.22-2.74-.72-3.87-.72"/>
    <path class="cls-1" d="M44.55,40.06c-.1-.04-.1-.09-.1-.09v-.91s.03-.05.12-.09c0-.21,0-.34,0-.34,0,0,0-.04.13-.04.14,0,.18.03.18.03,0,0,0,.13,0,.34.15.04.15.14.15.14v.87s-.04.1-.17.13c-.02.91.02,2.07.03,3.09.12.02.25.04.4.07,0-.44.02-.99.06-1.24.06-.44.14-.92.14-.92,0,0-.1-.1-.1-.22s.09-.45.15-.7c.06-.25.07-.33.12-.38.05-.05.15-.04.15-.04,0,0,.03-.11.05-.16.01-.03.06-.12.12-.11.04,0,.05,0,.12.04.06.04,0,.12,0,.27v.04s.08.04.08.16-.06.48-.1.67c-.04.2-.05.33-.1.38-.06.06-.16.07-.16.07,0,0-.14.92-.16,1.15-.01.21-.03.67-.03,1.04.78.18,1.78.43,2.5.43.67,0,1.43-.23,2.17-.41.16-1.99,1.42-3.54,2.95-3.54,1.61,0,2.91,1.7,2.96,3.83.37-.06.8-.16,1.25-.25v-.23h0v-5.3h-7.13v-4.57h-1.54v1.43h-1.58v-1.43h-1.45v1.43h-1.58v-1.43h-1.3s-.02,10.04-.02,10.04h0v.04c.19-.03,1.1-.19,1.67-.21-.03-1.02.01-2.18.03-3.11"/>
  </g>
  <rect class="cls-2" x="91.57" y="27.65" width=".46" height="29.38"/>
  <polygon class="cls-2" points="29.95 56.99 29.48 56.99 28.63 54.28 28.62 54.28 27.76 56.99 27.29 56.99 26.29 53.85 26.71 53.85 27.53 56.57 27.55 56.57 28.42 53.85 28.89 53.85 29.72 56.57 29.73 56.57 30.6 53.85 30.99 53.85 29.95 56.99"/>
  <polygon class="cls-2" points="35.26 56.99 34.79 56.99 33.93 54.28 33.92 54.28 33.07 56.99 32.6 56.99 31.59 53.85 32.02 53.85 32.84 56.57 32.85 56.57 33.73 53.85 34.19 53.85 35.02 56.57 35.04 56.57 35.9 53.85 36.29 53.85 35.26 56.99"/>
  <polygon class="cls-2" points="40.56 56.99 40.1 56.99 39.24 54.28 39.23 54.28 38.37 56.99 37.91 56.99 36.9 53.85 37.32 53.85 38.15 56.57 38.16 56.57 39.03 53.85 39.5 53.85 40.33 56.57 40.34 56.57 41.21 53.85 41.6 53.85 40.56 56.99"/>
  <rect class="cls-2" x="42.43" y="56.47" width=".5" height=".52"/>
  <g>
    <path class="cls-2" d="M45.54,56.73c.69,0,.93-.74.93-1.31s-.24-1.31-.93-1.31c-.74,0-.93.7-.93,1.31s.19,1.31.93,1.31M46.86,56.99h-.39v-.5h-.01c-.21.4-.53.57-.98.57-.86,0-1.29-.71-1.29-1.64s.37-1.64,1.29-1.64c.62,0,.92.45.98.6h.01v-2.01h.39v4.61Z"/>
    <path class="cls-2" d="M49.8,55.41h-.11c-.67,0-1.47.07-1.47.76,0,.41.3.57.65.57.91,0,.93-.79.93-1.13v-.19ZM49.84,56.49h-.01c-.17.37-.61.58-1,.58-.89,0-1.03-.6-1.03-.89,0-1.05,1.12-1.1,1.93-1.1h.07v-.16c0-.54-.19-.81-.71-.81-.33,0-.63.07-.92.26v-.37c.24-.12.65-.22.92-.22.78,0,1.1.35,1.1,1.17v1.38c0,.25,0,.44.03.66h-.38v-.5Z"/>
    <path class="cls-2" d="M53.27,55.2c0-.55-.22-1.09-.8-1.09s-.92.57-.92,1.09h1.72ZM53.46,56.89c-.27.11-.62.17-.91.17-1.04,0-1.43-.7-1.43-1.64s.53-1.64,1.32-1.64c.89,0,1.25.71,1.25,1.56v.2h-2.15c0,.66.36,1.2,1.03,1.2.28,0,.7-.12.88-.23v.39Z"/>
    <path class="cls-2" d="M54.67,54.55c0-.34,0-.47-.03-.7h.39v.6h.01c.14-.35.41-.68.81-.68.09,0,.2.02.27.04v.41c-.08-.03-.18-.04-.28-.04-.62,0-.78.69-.78,1.26v1.55h-.39v-2.44Z"/>
    <path class="cls-2" d="M58.73,55.41h-.11c-.67,0-1.47.07-1.47.76,0,.41.3.57.65.57.91,0,.93-.79.93-1.13v-.19ZM58.76,56.49h-.01c-.17.37-.61.58-1,.58-.89,0-1.03-.6-1.03-.89,0-1.05,1.12-1.1,1.93-1.1h.07v-.16c0-.54-.19-.81-.71-.81-.33,0-.63.07-.92.26v-.37c.24-.12.65-.22.92-.22.77,0,1.1.35,1.1,1.17v1.38c0,.25,0,.44.03.66h-.38v-.5Z"/>
  </g>
  <rect class="cls-2" x="60.04" y="55.12" width="1.54" height=".42"/>
  <path class="cls-2" d="M62.68,54.59c0-.24,0-.49-.02-.74h.37v.56h.01c.13-.28.36-.63,1.01-.63.78,0,1.07.52,1.07,1.21v2.01h-.39v-1.91c0-.59-.21-.97-.74-.97-.71,0-.93.62-.93,1.14v1.73h-.39v-2.4Z"/>
  <path class="cls-2" d="M66.45,56.99h.39v-3.14h-.39v3.14ZM66.45,53.01h.39v-.52h-.39v.52Z"/>
  <rect class="cls-2" x="68.29" y="56.47" width=".5" height=".52"/>
  <g>
    <path class="cls-2" d="M71.38,56.66c.7,0,.95-.66.95-1.24,0-.76-.22-1.31-.93-1.31s-.93.7-.93,1.31.25,1.24.9,1.24M72.72,56.73c0,.87-.39,1.59-1.47,1.59-.41,0-.79-.12-.95-.17l.03-.39c.24.12.58.22.92.22,1,0,1.08-.73,1.08-1.61h-.01c-.21.46-.55.62-.95.62-1,0-1.32-.87-1.32-1.57,0-.95.37-1.64,1.29-1.64.42,0,.69.06.98.43h.01v-.36h.39v2.88Z"/>
    <path class="cls-2" d="M75.23,56.73c.68,0,1.04-.58,1.04-1.31s-.36-1.31-1.04-1.31-1.04.58-1.04,1.31.36,1.31,1.04,1.31M75.23,53.78c1.01,0,1.46.79,1.46,1.64s-.45,1.64-1.46,1.64-1.46-.79-1.46-1.64.45-1.64,1.46-1.64"/>
  </g>
  <polygon class="cls-2" points="78.87 56.99 78.41 56.99 77.35 53.85 77.77 53.85 78.64 56.57 78.65 56.57 79.56 53.85 79.97 53.85 78.87 56.99"/>
  <rect class="cls-2" x="80.53" y="56.47" width=".5" height=".52"/>
  <path class="cls-2" d="M84.92,56.25c0,.24,0,.49.02.74h-.37v-.56h-.01c-.13.28-.36.63-1.02.63-.77,0-1.07-.52-1.07-1.21v-2.01h.39v1.91c0,.59.21.97.74.97.71,0,.93-.62.93-1.14v-1.74h.39v2.4Z"/>
  <polygon class="cls-2" points="86.24 52.37 86.63 52.37 86.63 55.14 88.04 53.85 88.53 53.85 87 55.24 88.72 56.99 88.18 56.99 86.63 55.38 86.63 56.99 86.24 56.99 86.24 52.37"/>
  <g>
    <path class="cls-1" d="M94.94,33.43v-6.04h.61l3.41,5.18v-5.18h.54v6.04h-.61l-3.4-5.18v5.18h-.55Z"/>
    <path class="cls-1" d="M100.55,31.25c0-.73.17-1.29.52-1.69.35-.4.84-.6,1.47-.6s1.13.2,1.48.6.53.97.53,1.69-.18,1.29-.52,1.68c-.35.4-.85.6-1.48.6s-1.12-.2-1.47-.6c-.35-.4-.52-.96-.52-1.69ZM101.07,31.25c0,.58.13,1.04.39,1.36.26.32.62.48,1.09.48s.84-.16,1.09-.48c.26-.32.39-.77.39-1.36s-.13-1.05-.39-1.37-.62-.48-1.09-.48-.83.16-1.09.48c-.26.32-.39.78-.39,1.36Z"/>
    <path class="cls-1" d="M105.49,33.43v-4.36h.49v.76c.13-.29.3-.51.52-.66.22-.14.5-.22.82-.22h.06v.53h-.07c-.43,0-.76.13-.98.39-.22.26-.33.64-.33,1.15v2.4h-.52Z"/>
    <path class="cls-1" d="M108.76,27.82v1.25h.81v.41h-.81v3.18c0,.19.02.31.07.37s.13.09.25.09c.05,0,.11,0,.18-.01s.17-.03.31-.06v.4c-.12.03-.23.06-.33.07s-.2.02-.29.02c-.25,0-.43-.06-.53-.19-.1-.13-.16-.36-.16-.69v-3.18h-.59v-.41h.59v-1.25h.5Z"/>
    <path class="cls-1" d="M110.41,33.43v-6.04h.51v2.36c.16-.26.36-.46.6-.59.24-.13.52-.2.83-.2.29,0,.55.05.78.16s.4.26.52.45c.06.1.11.23.13.38.03.15.04.42.04.82v2.65h-.51v-2.64c0-.54-.08-.91-.23-1.09-.15-.18-.43-.28-.83-.28s-.73.13-.97.39c-.24.26-.36.61-.36,1.05v2.57h-.51Z"/>
    <path class="cls-1" d="M115.28,31.34v.02c0,.53.13.96.38,1.27.26.32.6.47,1.03.47.34,0,.63-.09.86-.28.23-.18.37-.44.42-.76h.5c-.06.44-.25.8-.57,1.06-.33.27-.74.4-1.24.4-.59,0-1.06-.2-1.39-.6-.34-.4-.5-.96-.5-1.67s.17-1.29.51-1.7c.34-.41.81-.61,1.41-.61s1.04.19,1.37.58c.33.39.49.93.49,1.63v.17h-3.26ZM115.29,30.94h2.73c-.02-.48-.15-.85-.39-1.13-.24-.27-.56-.41-.95-.41s-.72.14-.97.42c-.25.28-.39.65-.41,1.12Z"/>
    <path class="cls-1" d="M119.46,33.43v-4.36h.49v.76c.13-.29.3-.51.52-.66.22-.14.5-.22.82-.22h.06v.53h-.07c-.43,0-.76.13-.98.39-.22.26-.33.64-.33,1.15v2.4h-.52Z"/>
    <path class="cls-1" d="M122.08,33.43v-4.36h.49v.7c.16-.27.37-.47.61-.6.24-.13.52-.2.84-.2.3,0,.56.05.79.16.23.11.4.26.52.45.06.1.11.22.14.37.03.14.04.38.04.71v2.78h-.52v-2.7c0-.51-.08-.86-.24-1.04s-.43-.27-.83-.27-.73.13-.97.39c-.24.26-.35.61-.35,1.06v2.57h-.51Z"/>
    <path class="cls-1" d="M129.05,33.43v-6.04h.57v6.04h-.57Z"/>
    <path class="cls-1" d="M130.93,33.43v-4.36h.49v.76c.13-.29.3-.51.52-.66.22-.14.5-.22.82-.22h.06v.53h-.07c-.43,0-.76.13-.98.39-.22.26-.33.64-.33,1.15v2.4h-.52Z"/>
    <path class="cls-1" d="M133.83,31.34v.02c0,.53.13.96.38,1.27.26.32.6.47,1.03.47.34,0,.63-.09.86-.28.23-.18.37-.44.42-.76h.5c-.06.44-.25.8-.57,1.06-.33.27-.74.4-1.24.4-.59,0-1.06-.2-1.39-.6-.34-.4-.5-.96-.5-1.67s.17-1.29.51-1.7c.34-.41.81-.61,1.41-.61s1.04.19,1.37.58c.33.39.49.93.49,1.63v.17h-3.26ZM133.84,30.94h2.73c-.02-.48-.15-.85-.39-1.13-.24-.27-.56-.41-.95-.41s-.72.14-.97.42c-.25.28-.39.65-.41,1.12Z"/>
    <path class="cls-1" d="M138.07,33.43v-6.04h.5v6.04h-.5Z"/>
    <path class="cls-1" d="M142.62,32.79c-.23.25-.48.43-.75.56-.27.12-.56.18-.86.18-.44,0-.79-.11-1.05-.34s-.39-.54-.39-.92c0-.25.06-.46.18-.65.12-.18.29-.33.52-.44.26-.12.69-.2,1.3-.24.12,0,.21-.02.27-.02.04,0,.08-.02.14-.03.42-.08.62-.26.62-.54,0-.34-.08-.58-.25-.73-.17-.15-.44-.22-.83-.22s-.69.08-.9.24-.32.4-.34.72h-.5c.01-.44.17-.78.48-1.03s.73-.38,1.25-.38.92.11,1.19.34c.27.22.41.55.41.98v2.38c0,.18.02.29.07.34s.13.07.25.07c.04,0,.07,0,.1,0s.06,0,.09,0v.38c-.06.01-.13.02-.19.03-.06,0-.12.01-.17.01-.21,0-.36-.05-.47-.15-.1-.1-.15-.25-.15-.45v-.07ZM142.58,31.14c-.13.05-.31.09-.51.12-.21.03-.55.06-1.01.08-.32.08-.57.2-.73.36s-.25.34-.25.56c0,.25.09.45.26.59.18.15.42.22.72.22.46,0,.83-.12,1.11-.36.27-.24.41-.56.41-.98v-.6Z"/>
    <path class="cls-1" d="M144.31,33.43v-4.36h.49v.7c.16-.27.37-.47.61-.6.24-.13.52-.2.84-.2.3,0,.56.05.79.16.23.11.4.26.52.45.06.1.11.22.14.37.03.14.04.38.04.71v2.78h-.52v-2.7c0-.51-.08-.86-.24-1.04s-.43-.27-.83-.27-.73.13-.97.39c-.24.26-.35.61-.35,1.06v2.57h-.51Z"/>
    <path class="cls-1" d="M152.61,27.39v6.04h-.5v-.74c-.17.28-.38.5-.64.64-.26.14-.56.22-.9.22-.59,0-1.05-.21-1.39-.62-.34-.41-.51-.97-.51-1.68s.17-1.27.52-1.68c.35-.41.82-.62,1.42-.62.34,0,.64.07.89.22.25.15.46.36.61.65v-2.44h.5ZM149.2,31.25c0,.58.13,1.04.39,1.36.26.32.62.48,1.08.48s.84-.16,1.1-.48.38-.77.38-1.37-.13-1.05-.39-1.37-.62-.48-1.09-.48-.83.16-1.09.48-.38.78-.38,1.37Z"/>
    <path class="cls-1" d="M156.16,33.43v-6.04h3.95v.5h-3.4v2.2h3.11v.48h-3.11v2.36h3.5v.5h-4.05Z"/>
    <path class="cls-1" d="M161.16,33.43v-4.36h.49v.7c.16-.27.37-.47.61-.6.24-.13.52-.2.84-.2.3,0,.56.05.79.16.23.11.4.26.52.45.06.1.11.22.14.37.03.14.04.38.04.71v2.78h-.52v-2.7c0-.51-.08-.86-.24-1.04s-.43-.27-.83-.27-.73.13-.97.39c-.24.26-.35.61-.35,1.06v2.57h-.51Z"/>
    <path class="cls-1" d="M166.82,33.43l-1.64-4.36h.54l1.4,3.75,1.37-3.75h.52l-1.63,4.36h-.56Z"/>
    <path class="cls-1" d="M169.69,28.15v-.76h.5v.76h-.5ZM169.69,33.43v-4.36h.5v4.36h-.5Z"/>
    <path class="cls-1" d="M171.4,33.43v-4.36h.49v.76c.13-.29.3-.51.52-.66.22-.14.5-.22.82-.22h.06v.53h-.07c-.43,0-.76.13-.98.39-.22.26-.33.64-.33,1.15v2.4h-.52Z"/>
    <path class="cls-1" d="M173.8,31.25c0-.73.17-1.29.52-1.69.35-.4.84-.6,1.47-.6s1.13.2,1.48.6.53.97.53,1.69-.18,1.29-.52,1.68c-.35.4-.85.6-1.48.6s-1.12-.2-1.47-.6c-.35-.4-.52-.96-.52-1.69ZM174.32,31.25c0,.58.13,1.04.39,1.36.26.32.62.48,1.09.48s.84-.16,1.09-.48c.26-.32.39-.77.39-1.36s-.13-1.05-.39-1.37-.62-.48-1.09-.48-.83.16-1.09.48c-.26.32-.39.78-.39,1.36Z"/>
    <path class="cls-1" d="M178.73,33.43v-4.36h.49v.7c.16-.27.37-.47.61-.6.24-.13.52-.2.84-.2.3,0,.56.05.79.16.23.11.4.26.52.45.06.1.11.22.14.37.03.14.04.38.04.71v2.78h-.52v-2.7c0-.51-.08-.86-.24-1.04s-.43-.27-.83-.27-.73.13-.97.39c-.24.26-.35.61-.35,1.06v2.57h-.51Z"/>
    <path class="cls-1" d="M183.29,33.43v-4.36h.47v.72c.15-.27.34-.47.58-.62.24-.14.51-.22.81-.22.32,0,.59.07.81.22.22.15.36.36.43.63.14-.28.34-.49.58-.64s.51-.22.83-.22c.47,0,.83.12,1.06.35.23.24.35.59.35,1.08v3.04h-.51v-3c0-.37-.07-.63-.21-.79-.14-.16-.38-.24-.7-.24-.39,0-.69.12-.93.36s-.35.55-.35.93v2.73h-.5v-2.95c0-.36-.08-.63-.23-.8-.15-.18-.38-.26-.69-.26-.38,0-.69.12-.93.36-.24.24-.35.56-.35.95v2.69h-.5Z"/>
    <path class="cls-1" d="M190.62,31.34v.02c0,.53.13.96.38,1.27.26.32.6.47,1.03.47.34,0,.63-.09.86-.28.23-.18.37-.44.42-.76h.5c-.06.44-.25.8-.57,1.06-.33.27-.74.4-1.24.4-.59,0-1.06-.2-1.39-.6-.34-.4-.5-.96-.5-1.67s.17-1.29.51-1.7c.34-.41.81-.61,1.41-.61s1.04.19,1.37.58c.33.39.49.93.49,1.63v.17h-3.26ZM190.63,30.94h2.73c-.02-.48-.15-.85-.39-1.13-.24-.27-.56-.41-.95-.41s-.72.14-.97.42c-.25.28-.39.65-.41,1.12Z"/>
    <path class="cls-1" d="M194.8,33.43v-4.36h.49v.7c.16-.27.37-.47.61-.6.24-.13.52-.2.84-.2.3,0,.56.05.79.16.23.11.4.26.52.45.06.1.11.22.14.37.03.14.04.38.04.71v2.78h-.52v-2.7c0-.51-.08-.86-.24-1.04s-.43-.27-.83-.27-.73.13-.97.39c-.24.26-.35.61-.35,1.06v2.57h-.51Z"/>
    <path class="cls-1" d="M200.03,27.82v1.25h.81v.41h-.81v3.18c0,.19.02.31.07.37s.13.09.25.09c.05,0,.11,0,.18-.01s.17-.03.31-.06v.4c-.12.03-.23.06-.33.07s-.2.02-.29.02c-.25,0-.43-.06-.53-.19-.1-.13-.16-.36-.16-.69v-3.18h-.59v-.41h.59v-1.25h.5Z"/>
    <path class="cls-1" d="M203.34,33.43l2.29-6.04h.66l2.29,6.04h-.58l-.68-1.86h-2.71l-.7,1.86h-.58ZM204.79,31.09h2.34l-1.17-3.11-1.17,3.11Z"/>
    <path class="cls-1" d="M212.88,29.07v4.13c0,.66-.17,1.16-.52,1.5-.35.34-.86.51-1.54.51-.51,0-.92-.11-1.23-.34s-.48-.54-.51-.93h.52c.03.26.15.47.36.61.21.14.5.21.86.21.52,0,.92-.13,1.18-.39.26-.26.4-.64.4-1.16v-.54c-.18.29-.39.51-.65.65-.25.14-.54.22-.87.22-.6,0-1.07-.2-1.41-.61s-.52-.97-.52-1.68.17-1.26.52-1.68c.35-.41.82-.62,1.41-.62.34,0,.63.07.88.22.25.15.46.36.63.65v-.75h.5ZM209.47,31.25c0,.58.13,1.03.39,1.36s.62.49,1.08.49.83-.16,1.09-.49c.26-.32.39-.78.39-1.36s-.13-1.04-.39-1.36c-.26-.32-.62-.48-1.09-.48s-.83.16-1.09.48-.38.78-.38,1.37Z"/>
    <path class="cls-1" d="M214.33,31.34v.02c0,.53.13.96.38,1.27.26.32.6.47,1.03.47.34,0,.63-.09.86-.28.23-.18.37-.44.42-.76h.5c-.06.44-.25.8-.57,1.06-.33.27-.74.4-1.24.4-.59,0-1.06-.2-1.39-.6-.34-.4-.5-.96-.5-1.67s.17-1.29.51-1.7c.34-.41.81-.61,1.41-.61s1.04.19,1.37.58c.33.39.49.93.49,1.63v.17h-3.26ZM214.34,30.94h2.73c-.02-.48-.15-.85-.39-1.13-.24-.27-.56-.41-.95-.41s-.72.14-.97.42c-.25.28-.39.65-.41,1.12Z"/>
    <path class="cls-1" d="M218.52,33.43v-4.36h.49v.7c.16-.27.37-.47.61-.6.24-.13.52-.2.84-.2.3,0,.56.05.79.16.23.11.4.26.52.45.06.1.11.22.14.37.03.14.04.38.04.71v2.78h-.52v-2.7c0-.51-.08-.86-.24-1.04s-.43-.27-.83-.27-.73.13-.97.39c-.24.26-.35.61-.35,1.06v2.57h-.51Z"/>
    <path class="cls-1" d="M226.07,31.92h.5c-.05.5-.23.89-.55,1.18s-.74.43-1.26.43c-.59,0-1.06-.2-1.4-.61-.34-.4-.51-.95-.51-1.65s.17-1.29.52-1.7c.35-.41.82-.62,1.42-.62.49,0,.89.14,1.21.41.32.27.49.64.51,1.08h-.48c-.04-.32-.17-.57-.4-.76-.23-.19-.5-.29-.83-.29-.44,0-.78.16-1.04.49s-.38.77-.38,1.34.13,1.03.39,1.37c.26.34.61.5,1.04.5.34,0,.62-.11.85-.32.23-.21.37-.5.42-.87Z"/>
    <path class="cls-1" d="M228.8,34.27c-.13.34-.28.58-.46.72-.18.14-.42.22-.71.22-.07,0-.13,0-.19-.01s-.11-.02-.16-.03v-.46c.09.01.17.02.22.03.05,0,.1.01.13.01.18,0,.33-.05.43-.14.1-.1.21-.29.33-.59l.2-.55-1.7-4.4h.54l1.41,3.72,1.38-3.72h.52l-1.93,5.2Z"/>
  </g>
  <g>
    <path class="cls-1" d="M99.91,44.67l-.06-1.07c-.19.39-.46.69-.83.91-.37.22-.79.33-1.27.33-.84,0-1.5-.29-1.98-.86s-.72-1.35-.72-2.34.25-1.75.74-2.32,1.16-.85,2-.85c.7,0,1.27.17,1.71.5.44.33.7.81.79,1.41h-.57c-.08-.45-.3-.8-.64-1.05-.34-.25-.77-.38-1.28-.38-.7,0-1.23.23-1.61.7-.38.46-.57,1.12-.57,1.98s.19,1.48.57,1.97c.38.48.89.73,1.55.73s1.18-.2,1.55-.59c.37-.39.56-.94.56-1.65v-.02h-1.99v-.5h2.52v3.1h-.45Z"/>
    <path class="cls-1" d="M101.51,44.67v-4.36h.49v.7c.16-.27.37-.47.61-.6.24-.13.52-.2.84-.2.3,0,.56.05.79.16.23.11.4.26.52.45.06.1.11.22.14.37.03.14.04.38.04.71v2.78h-.52v-2.7c0-.51-.08-.86-.24-1.04s-.43-.27-.83-.27-.73.13-.97.39c-.24.26-.35.61-.35,1.06v2.57h-.51Z"/>
    <path class="cls-1" d="M106.23,39.75h-.38l.86-1.43h.62l-1.1,1.43ZM106.12,44.67v-4.36h.5v4.36h-.5Z"/>
    <path class="cls-1" d="M107.61,42.49c0-.73.17-1.29.52-1.69.35-.4.84-.6,1.47-.6s1.13.2,1.48.6.53.97.53,1.69-.18,1.29-.52,1.68c-.35.4-.85.6-1.48.6s-1.12-.2-1.47-.6c-.35-.4-.52-.96-.52-1.69ZM108.13,42.49c0,.58.13,1.04.39,1.36.26.32.62.48,1.09.48s.84-.16,1.09-.48c.26-.32.39-.77.39-1.36s-.13-1.05-.39-1.37-.62-.48-1.09-.48-.83.16-1.09.48c-.26.32-.39.78-.39,1.36Z"/>
    <path class="cls-1" d="M112.55,44.67v-4.36h.47v.72c.15-.27.34-.47.58-.62.24-.14.51-.22.81-.22.32,0,.59.07.81.22.22.15.36.36.43.63.14-.28.34-.49.58-.64s.51-.22.83-.22c.47,0,.83.12,1.06.35.23.24.35.59.35,1.08v3.04h-.51v-3c0-.37-.07-.63-.21-.79-.14-.16-.38-.24-.7-.24-.39,0-.69.12-.93.36s-.35.55-.35.93v2.73h-.5v-2.95c0-.36-.08-.63-.23-.8-.15-.18-.38-.26-.69-.26-.38,0-.69.12-.93.36-.24.24-.35.56-.35.95v2.69h-.5Z"/>
    <path class="cls-1" d="M119.58,44.67v-6.04h.51v2.36c.16-.26.36-.46.6-.59.24-.13.52-.2.83-.2.29,0,.55.05.78.16s.4.26.52.45c.06.1.11.23.13.38.03.15.04.42.04.82v2.65h-.51v-2.64c0-.54-.08-.91-.23-1.09-.15-.18-.43-.28-.83-.28s-.73.13-.97.39c-.24.26-.36.61-.36,1.05v2.57h-.51Z"/>
    <path class="cls-1" d="M126.99,44.03c-.23.25-.48.43-.75.56-.27.12-.56.18-.86.18-.44,0-.79-.11-1.05-.34s-.39-.54-.39-.92c0-.25.06-.46.18-.65.12-.18.29-.33.52-.44.26-.12.69-.2,1.3-.24.12,0,.21-.02.27-.02.04,0,.08-.02.14-.03.42-.08.62-.26.62-.54,0-.34-.08-.58-.25-.73-.17-.15-.44-.22-.83-.22s-.69.08-.9.24-.32.4-.34.72h-.5c.01-.44.17-.78.48-1.03s.73-.38,1.25-.38.92.11,1.19.34c.27.22.41.55.41.98v2.38c0,.18.02.29.07.34s.13.07.25.07c.04,0,.07,0,.1,0s.06,0,.09,0v.38c-.06.01-.13.02-.19.03-.06,0-.12.01-.17.01-.21,0-.36-.05-.47-.15-.1-.1-.15-.25-.15-.45v-.07ZM126.96,42.38c-.13.05-.31.09-.51.12-.21.03-.55.06-1.01.08-.32.08-.57.2-.73.36s-.25.34-.25.56c0,.25.09.45.26.59.18.15.42.22.72.22.46,0,.83-.12,1.11-.36.27-.24.41-.56.41-.98v-.6Z"/>
    <path class="cls-1" d="M128.74,39.39v-.76h.5v.76h-.5ZM128.74,44.67v-4.36h.5v4.36h-.5Z"/>
    <path class="cls-1" d="M130.45,44.67v-4.36h.49v.76c.13-.29.3-.51.52-.66.22-.14.5-.22.82-.22h.06v.53h-.07c-.43,0-.76.13-.98.39-.22.26-.33.64-.33,1.15v2.4h-.52Z"/>
    <path class="cls-1" d="M133.36,42.58v.02c0,.53.13.96.38,1.27.26.32.6.47,1.03.47.34,0,.63-.09.86-.28.23-.18.37-.44.42-.76h.5c-.06.44-.25.8-.57,1.06-.33.27-.74.4-1.24.4-.59,0-1.06-.2-1.39-.6-.34-.4-.5-.96-.5-1.67s.17-1.29.51-1.7c.34-.41.81-.61,1.41-.61s1.04.19,1.37.58c.33.39.49.93.49,1.63v.17h-3.26ZM133.37,42.18h2.73c-.02-.48-.15-.85-.39-1.13-.24-.27-.56-.41-.95-.41s-.72.14-.97.42c-.25.28-.39.65-.41,1.12Z"/>
    <path class="cls-1" d="M140.38,44.03c-.23.25-.48.43-.75.56-.27.12-.56.18-.86.18-.44,0-.79-.11-1.05-.34s-.39-.54-.39-.92c0-.25.06-.46.18-.65.12-.18.29-.33.52-.44.26-.12.69-.2,1.3-.24.12,0,.21-.02.27-.02.04,0,.08-.02.14-.03.42-.08.62-.26.62-.54,0-.34-.08-.58-.25-.73-.17-.15-.44-.22-.83-.22s-.69.08-.9.24-.32.4-.34.72h-.5c.01-.44.17-.78.48-1.03s.73-.38,1.25-.38.92.11,1.19.34c.27.22.41.55.41.98v2.38c0,.18.02.29.07.34s.13.07.25.07c.04,0,.07,0,.1,0s.06,0,.09,0v.38c-.06.01-.13.02-.19.03-.06,0-.12.01-.17.01-.21,0-.36-.05-.47-.15-.1-.1-.15-.25-.15-.45v-.07ZM140.35,42.38c-.13.05-.31.09-.51.12-.21.03-.55.06-1.01.08-.32.08-.57.2-.73.36s-.25.34-.25.56c0,.25.09.45.26.59.18.15.42.22.72.22.46,0,.83-.12,1.11-.36.27-.24.41-.56.41-.98v-.6Z"/>
    <path class="cls-1" d="M145.08,43.16h.5c-.05.5-.23.89-.55,1.18s-.74.43-1.26.43c-.59,0-1.06-.2-1.4-.61-.34-.4-.51-.95-.51-1.65s.17-1.29.52-1.7c.35-.41.82-.62,1.42-.62.49,0,.89.14,1.21.41.32.27.49.64.51,1.08h-.48c-.04-.32-.17-.57-.4-.76-.23-.19-.5-.29-.83-.29-.44,0-.78.16-1.04.49s-.38.77-.38,1.34.13,1.03.39,1.37c.26.34.61.5,1.04.5.34,0,.62-.11.85-.32.23-.21.37-.5.42-.87Z"/>
    <path class="cls-1" d="M146.45,44.67v-6.04h.51v2.36c.16-.26.36-.46.6-.59.24-.13.52-.2.83-.2.29,0,.55.05.78.16s.4.26.52.45c.06.1.11.23.13.38.03.15.04.42.04.82v2.65h-.51v-2.64c0-.54-.08-.91-.23-1.09-.15-.18-.43-.28-.83-.28s-.73.13-.97.39c-.24.26-.36.61-.36,1.05v2.57h-.51Z"/>
    <path class="cls-1" d="M151.68,39.06v1.25h.81v.41h-.81v3.18c0,.19.02.31.07.37s.13.09.25.09c.05,0,.11,0,.18-.01s.17-.03.31-.06v.4c-.12.03-.23.06-.33.07s-.2.02-.29.02c-.25,0-.43-.06-.53-.19-.1-.13-.16-.36-.16-.69v-3.18h-.59v-.41h.59v-1.25h.5Z"/>
    <path class="cls-1" d="M159.94,42.69h.55c-.05.67-.28,1.19-.71,1.57s-.99.57-1.7.57c-.81,0-1.45-.29-1.92-.85-.47-.57-.7-1.35-.7-2.34s.24-1.76.71-2.32c.47-.56,1.12-.84,1.93-.84.68,0,1.24.17,1.66.52.42.35.65.81.68,1.4h-.54c-.05-.44-.23-.79-.55-1.05s-.73-.38-1.24-.38c-.65,0-1.16.23-1.52.7-.36.47-.55,1.12-.55,1.97s.18,1.52.56,2,.88.72,1.54.72c.53,0,.96-.15,1.28-.44.32-.29.51-.7.54-1.21Z"/>
    <path class="cls-1" d="M161.25,42.49c0-.73.17-1.29.52-1.69.35-.4.84-.6,1.47-.6s1.13.2,1.48.6.53.97.53,1.69-.18,1.29-.52,1.68c-.35.4-.85.6-1.48.6s-1.12-.2-1.47-.6c-.35-.4-.52-.96-.52-1.69ZM161.77,42.49c0,.58.13,1.04.39,1.36.26.32.62.48,1.09.48s.84-.16,1.09-.48c.26-.32.39-.77.39-1.36s-.13-1.05-.39-1.37-.62-.48-1.09-.48-.83.16-1.09.48c-.26.32-.39.78-.39,1.36Z"/>
    <path class="cls-1" d="M166.19,44.67v-4.36h.47v.72c.15-.27.34-.47.58-.62.24-.14.51-.22.81-.22.32,0,.59.07.81.22.22.15.36.36.43.63.14-.28.34-.49.58-.64s.51-.22.83-.22c.47,0,.83.12,1.06.35.23.24.35.59.35,1.08v3.04h-.51v-3c0-.37-.07-.63-.21-.79-.14-.16-.38-.24-.7-.24-.39,0-.69.12-.93.36s-.35.55-.35.93v2.73h-.5v-2.95c0-.36-.08-.63-.23-.8-.15-.18-.38-.26-.69-.26-.38,0-.69.12-.93.36-.24.24-.35.56-.35.95v2.69h-.5Z"/>
    <path class="cls-1" d="M173.22,44.67v-6.04h.51v2.36c.16-.26.36-.46.6-.59.24-.13.52-.2.83-.2.29,0,.55.05.78.16s.4.26.52.45c.06.1.11.23.13.38.03.15.04.42.04.82v2.65h-.51v-2.64c0-.54-.08-.91-.23-1.09-.15-.18-.43-.28-.83-.28s-.73.13-.97.39c-.24.26-.36.61-.36,1.05v2.57h-.51Z"/>
    <path class="cls-1" d="M177.61,43.31h.5c.01.3.13.54.34.73s.49.28.83.28c.36,0,.65-.07.86-.22.21-.14.31-.34.31-.58,0-.35-.39-.62-1.16-.81h-.02c-.62-.15-1.04-.32-1.25-.5s-.32-.43-.32-.75c0-.37.14-.68.42-.91.28-.23.64-.35,1.08-.35.49,0,.88.12,1.17.37s.45.58.48,1.02h-.51c-.02-.3-.13-.53-.33-.69-.2-.17-.47-.25-.81-.25-.3,0-.54.07-.71.21-.18.14-.27.32-.27.54,0,.39.4.67,1.19.86.1.02.18.04.23.05.5.12.84.28,1.04.46.19.18.29.44.29.77,0,.37-.15.67-.46.9s-.71.35-1.2.35-.91-.13-1.22-.4c-.31-.27-.47-.63-.48-1.07Z"/>
    <path class="cls-1" d="M181.95,44.67v-6.04h.51v2.36c.16-.26.36-.46.6-.59.24-.13.52-.2.83-.2.29,0,.55.05.78.16s.4.26.52.45c.06.1.11.23.13.38.03.15.04.42.04.82v2.65h-.51v-2.64c0-.54-.08-.91-.23-1.09-.15-.18-.43-.28-.83-.28s-.73.13-.97.39c-.24.26-.36.61-.36,1.05v2.57h-.51Z"/>
    <path class="cls-1" d="M189.37,44.03c-.23.25-.48.43-.75.56-.27.12-.56.18-.86.18-.44,0-.79-.11-1.05-.34s-.39-.54-.39-.92c0-.25.06-.46.18-.65.12-.18.29-.33.52-.44.26-.12.69-.2,1.3-.24.12,0,.21-.02.27-.02.04,0,.08-.02.14-.03.42-.08.62-.26.62-.54,0-.34-.08-.58-.25-.73-.17-.15-.44-.22-.83-.22s-.69.08-.9.24-.32.4-.34.72h-.5c.01-.44.17-.78.48-1.03s.73-.38,1.25-.38.92.11,1.19.34c.27.22.41.55.41.98v2.38c0,.18.02.29.07.34s.13.07.25.07c.04,0,.07,0,.1,0s.06,0,.09,0v.38c-.06.01-.13.02-.19.03-.06,0-.12.01-.17.01-.21,0-.36-.05-.47-.15-.1-.1-.15-.25-.15-.45v-.07ZM189.33,42.38c-.13.05-.31.09-.51.12-.21.03-.55.06-1.01.08-.32.08-.57.2-.73.36s-.25.34-.25.56c0,.25.09.45.26.59.18.15.42.22.72.22.46,0,.83-.12,1.11-.36.27-.24.41-.56.41-.98v-.6Z"/>
    <path class="cls-1" d="M190.85,42.49c0-.73.17-1.29.52-1.69.35-.4.84-.6,1.47-.6s1.13.2,1.48.6.53.97.53,1.69-.18,1.29-.52,1.68c-.35.4-.85.6-1.48.6s-1.12-.2-1.47-.6c-.35-.4-.52-.96-.52-1.69ZM191.37,42.49c0,.58.13,1.04.39,1.36.26.32.62.48,1.09.48s.84-.16,1.09-.48c.26-.32.39-.77.39-1.36s-.13-1.05-.39-1.37-.62-.48-1.09-.48-.83.16-1.09.48c-.26.32-.39.78-.39,1.36Z"/>
    <path class="cls-1" d="M195.83,39.39v-.76h.5v.76h-.5ZM195.83,44.67v-4.36h.5v4.36h-.5Z"/>
    <path class="cls-1" d="M197.6,44.67v-6.04h.5v6.04h-.5Z"/>
    <path class="cls-1" d="M202.96,44.67v-5.54h-1.87v-.5h4.32v.5h-1.87v5.54h-.57Z"/>
    <path class="cls-1" d="M206.08,44.67v-6.04h.51v2.36c.16-.26.36-.46.6-.59.24-.13.52-.2.83-.2.29,0,.55.05.78.16s.4.26.52.45c.06.1.11.23.13.38.03.15.04.42.04.82v2.65h-.51v-2.64c0-.54-.08-.91-.23-1.09-.15-.18-.43-.28-.83-.28s-.73.13-.97.39c-.24.26-.36.61-.36,1.05v2.57h-.51Z"/>
    <path class="cls-1" d="M214.06,40.31v4.36h-.49v-.7c-.17.28-.37.48-.61.61s-.52.2-.85.2c-.49,0-.86-.13-1.11-.39-.25-.26-.37-.64-.37-1.16v-2.93h.5v2.81c0,.44.08.74.25.93.16.18.44.27.82.27.42,0,.75-.13.99-.38.24-.26.36-.61.36-1.05v-2.58h.5Z"/>
    <path class="cls-1" d="M218.06,44.03c-.23.25-.48.43-.75.56-.27.12-.56.18-.86.18-.44,0-.79-.11-1.05-.34s-.39-.54-.39-.92c0-.25.06-.46.18-.65.12-.18.29-.33.52-.44.26-.12.69-.2,1.3-.24.12,0,.21-.02.27-.02.04,0,.08-.02.14-.03.42-.08.62-.26.62-.54,0-.34-.08-.58-.25-.73-.17-.15-.44-.22-.83-.22s-.69.08-.9.24-.32.4-.34.72h-.5c.01-.44.17-.78.48-1.03s.73-.38,1.25-.38.92.11,1.19.34c.27.22.41.55.41.98v2.38c0,.18.02.29.07.34s.13.07.25.07c.04,0,.07,0,.1,0s.06,0,.09,0v.38c-.06.01-.13.02-.19.03-.06,0-.12.01-.17.01-.21,0-.36-.05-.47-.15-.1-.1-.15-.25-.15-.45v-.07ZM218.03,42.38c-.13.05-.31.09-.51.12-.21.03-.55.06-1.01.08-.32.08-.57.2-.73.36s-.25.34-.25.56c0,.25.09.45.26.59.18.15.42.22.72.22.46,0,.83-.12,1.11-.36.27-.24.41-.56.41-.98v-.6Z"/>
    <path class="cls-1" d="M219.81,39.39v-.76h.5v.76h-.5ZM219.81,44.67v-4.36h.5v4.36h-.5Z"/>
    <path class="cls-1" d="M221.34,43.31h.5c.01.3.13.54.34.73s.49.28.83.28c.36,0,.65-.07.86-.22.21-.14.31-.34.31-.58,0-.35-.39-.62-1.16-.81h-.02c-.62-.15-1.04-.32-1.25-.5s-.32-.43-.32-.75c0-.37.14-.68.42-.91.28-.23.64-.35,1.08-.35.49,0,.88.12,1.17.37s.45.58.48,1.02h-.51c-.02-.3-.13-.53-.33-.69-.2-.17-.47-.25-.81-.25-.3,0-.54.07-.71.21-.18.14-.27.32-.27.54,0,.39.4.67,1.19.86.1.02.18.04.23.05.5.12.84.28,1.04.46.19.18.29.44.29.77,0,.37-.15.67-.46.9s-.71.35-1.2.35-.91-.13-1.22-.4c-.31-.27-.47-.63-.48-1.07Z"/>
    <path class="cls-1" d="M228.67,43.16h.5c-.05.5-.23.89-.55,1.18s-.74.43-1.26.43c-.59,0-1.06-.2-1.4-.61-.34-.4-.51-.95-.51-1.65s.17-1.29.52-1.7c.35-.41.82-.62,1.42-.62.49,0,.89.14,1.21.41.32.27.49.64.51,1.08h-.48c-.04-.32-.17-.57-.4-.76-.23-.19-.5-.29-.83-.29-.44,0-.78.16-1.04.49s-.38.77-.38,1.34.13,1.03.39,1.37c.26.34.61.5,1.04.5.34,0,.62-.11.85-.32.23-.21.37-.5.42-.87Z"/>
    <path class="cls-1" d="M230.34,42.58v.02c0,.53.13.96.38,1.27.26.32.6.47,1.03.47.34,0,.63-.09.86-.28.23-.18.37-.44.42-.76h.5c-.06.44-.25.8-.57,1.06-.33.27-.74.4-1.24.4-.59,0-1.06-.2-1.39-.6-.34-.4-.5-.96-.5-1.67s.17-1.29.51-1.7c.34-.41.81-.61,1.41-.61s1.04.19,1.37.58c.33.39.49.93.49,1.63v.17h-3.26ZM230.35,42.18h2.73c-.02-.48-.15-.85-.39-1.13-.24-.27-.56-.41-.95-.41s-.72.14-.97.42c-.25.28-.39.65-.41,1.12Z"/>
    <path class="cls-1" d="M237.36,44.03c-.23.25-.48.43-.75.56-.27.12-.56.18-.86.18-.44,0-.79-.11-1.05-.34s-.39-.54-.39-.92c0-.25.06-.46.18-.65.12-.18.29-.33.52-.44.26-.12.69-.2,1.3-.24.12,0,.21-.02.27-.02.04,0,.08-.02.14-.03.42-.08.62-.26.62-.54,0-.34-.08-.58-.25-.73-.17-.15-.44-.22-.83-.22s-.69.08-.9.24-.32.4-.34.72h-.5c.01-.44.17-.78.48-1.03s.73-.38,1.25-.38.92.11,1.19.34c.27.22.41.55.41.98v2.38c0,.18.02.29.07.34s.13.07.25.07c.04,0,.07,0,.1,0s.06,0,.09,0v.38c-.06.01-.13.02-.19.03-.06,0-.12.01-.17.01-.21,0-.36-.05-.47-.15-.1-.1-.15-.25-.15-.45v-.07ZM237.33,42.38c-.13.05-.31.09-.51.12-.21.03-.55.06-1.01.08-.32.08-.57.2-.73.36s-.25.34-.25.56c0,.25.09.45.26.59.18.15.42.22.72.22.46,0,.83-.12,1.11-.36.27-.24.41-.56.41-.98v-.6Z"/>
    <path class="cls-1" d="M239.06,44.67v-4.36h.49v.76c.13-.29.3-.51.52-.66.22-.14.5-.22.82-.22h.06v.53h-.07c-.43,0-.76.13-.98.39-.22.26-.33.64-.33,1.15v2.4h-.52Z"/>
    <path class="cls-1" d="M242.33,39.06v1.25h.81v.41h-.81v3.18c0,.19.02.31.07.37s.13.09.25.09c.05,0,.11,0,.18-.01s.17-.03.31-.06v.4c-.12.03-.23.06-.33.07s-.2.02-.29.02c-.25,0-.43-.06-.53-.19-.1-.13-.16-.36-.16-.69v-3.18h-.59v-.41h.59v-1.25h.5Z"/>
    <path class="cls-1" d="M246.36,44.67v-6.04h3.95v.5h-3.4v2.2h3.11v.48h-3.11v2.36h3.5v.5h-4.05ZM248.25,38.03h-.38l.86-1.43h.62l-1.1,1.43Z"/>
    <path class="cls-1" d="M251.41,39.39v-.76h.5v.76h-.5ZM251.41,44.67v-4.36h.5v4.36h-.5Z"/>
    <path class="cls-1" d="M253.12,44.67v-4.36h.49v.76c.13-.29.3-.51.52-.66.22-.14.5-.22.82-.22h.06v.53h-.07c-.43,0-.76.13-.98.39-.22.26-.33.64-.33,1.15v2.4h-.52Z"/>
    <path class="cls-1" d="M256.03,42.58v.02c0,.53.13.96.38,1.27.26.32.6.47,1.03.47.34,0,.63-.09.86-.28.23-.18.37-.44.42-.76h.5c-.06.44-.25.8-.57,1.06-.33.27-.74.4-1.24.4-.59,0-1.06-.2-1.39-.6-.34-.4-.5-.96-.5-1.67s.17-1.29.51-1.7c.34-.41.81-.61,1.41-.61s1.04.19,1.37.58c.33.39.49.93.49,1.63v.17h-3.26ZM256.03,42.18h2.73c-.02-.48-.15-.85-.39-1.13-.24-.27-.56-.41-.95-.41s-.72.14-.97.42c-.25.28-.39.65-.41,1.12Z"/>
    <path class="cls-1" d="M263.05,44.03c-.23.25-.48.43-.75.56-.27.12-.56.18-.86.18-.44,0-.79-.11-1.05-.34s-.39-.54-.39-.92c0-.25.06-.46.18-.65.12-.18.29-.33.52-.44.26-.12.69-.2,1.3-.24.12,0,.21-.02.27-.02.04,0,.08-.02.14-.03.42-.08.62-.26.62-.54,0-.34-.08-.58-.25-.73-.17-.15-.44-.22-.83-.22s-.69.08-.9.24-.32.4-.34.72h-.5c.01-.44.17-.78.48-1.03s.73-.38,1.25-.38.92.11,1.19.34c.27.22.41.55.41.98v2.38c0,.18.02.29.07.34s.13.07.25.07c.04,0,.07,0,.1,0s.06,0,.09,0v.38c-.06.01-.13.02-.19.03-.06,0-.12.01-.17.01-.21,0-.36-.05-.47-.15-.1-.1-.15-.25-.15-.45v-.07ZM263.02,42.38c-.13.05-.31.09-.51.12-.21.03-.55.06-1.01.08-.32.08-.57.2-.73.36s-.25.34-.25.56c0,.25.09.45.26.59.18.15.42.22.72.22.46,0,.83-.12,1.11-.36.27-.24.41-.56.41-.98v-.6Z"/>
    <path class="cls-1" d="M264.75,44.67v-4.36h.49v.7c.16-.27.37-.47.61-.6.24-.13.52-.2.84-.2.3,0,.56.05.79.16.23.11.4.26.52.45.06.1.11.22.14.37.03.14.04.38.04.71v2.78h-.52v-2.7c0-.51-.08-.86-.24-1.04s-.43-.27-.83-.27-.73.13-.97.39c-.24.26-.35.61-.35,1.06v2.57h-.51Z"/>
    <path class="cls-1" d="M269.3,44.67v-4.36h.49v.7c.16-.27.37-.47.61-.6.24-.13.52-.2.84-.2.3,0,.56.05.79.16.23.11.4.26.52.45.06.1.11.22.14.37.03.14.04.38.04.71v2.78h-.52v-2.7c0-.51-.08-.86-.24-1.04s-.43-.27-.83-.27-.73.13-.97.39c-.24.26-.35.61-.35,1.06v2.57h-.51Z"/>
  </g>
  <g>
    <path class="cls-1" d="M95.3,56.43v-6.04h.61l3.41,5.18v-5.18h.54v6.04h-.61l-3.4-5.18v5.18h-.55Z"/>
    <path class="cls-1" d="M100.91,54.26c0-.73.17-1.29.52-1.69.35-.4.84-.6,1.47-.6s1.13.2,1.48.6.53.97.53,1.69-.18,1.29-.52,1.68c-.35.4-.85.6-1.48.6s-1.12-.2-1.47-.6c-.35-.4-.52-.96-.52-1.69ZM101.43,54.26c0,.58.13,1.04.39,1.36.26.32.62.48,1.09.48s.84-.16,1.09-.48c.26-.32.39-.77.39-1.36s-.13-1.05-.39-1.37-.62-.48-1.09-.48-.83.16-1.09.48c-.26.32-.39.78-.39,1.36Z"/>
    <path class="cls-1" d="M105.85,56.43v-4.36h.49v.76c.13-.29.3-.51.52-.66.22-.14.5-.22.82-.22h.06v.53h-.07c-.43,0-.76.13-.98.39-.22.26-.33.64-.33,1.15v2.4h-.52Z"/>
    <path class="cls-1" d="M108.51,56.43v-6.04h.5v6.04h-.5Z"/>
    <path class="cls-1" d="M110.28,51.16v-.76h.5v.76h-.5ZM110.28,56.43v-4.36h.5v4.36h-.5Z"/>
    <path class="cls-1" d="M111.99,56.43v-4.36h.49v.7c.16-.27.37-.47.61-.6.24-.13.52-.2.84-.2.3,0,.56.05.79.16.23.11.4.26.52.45.06.1.11.22.14.37.03.14.04.38.04.71v2.78h-.52v-2.7c0-.51-.08-.86-.24-1.04s-.43-.27-.83-.27-.73.13-.97.39c-.24.26-.35.61-.35,1.06v2.57h-.51Z"/>
    <path class="cls-1" d="M118.21,56.43l2.29-6.04h.66l2.29,6.04h-.58l-.68-1.86h-2.71l-.7,1.86h-.58ZM119.66,54.09h2.34l-1.17-3.11-1.17,3.11Z"/>
    <path class="cls-1" d="M124.07,51.16v-.76h.5v.76h-.5ZM124.07,56.43v-4.36h.5v4.36h-.5Z"/>
    <path class="cls-1" d="M125.78,56.43v-4.36h.49v.76c.13-.29.3-.51.52-.66.22-.14.5-.22.82-.22h.06v.53h-.07c-.43,0-.76.13-.98.39-.22.26-.33.64-.33,1.15v2.4h-.52Z"/>
    <path class="cls-1" d="M128.45,56.43v-6.04h.5v6.04h-.5Z"/>
    <path class="cls-1" d="M132.99,55.8c-.23.25-.48.43-.75.56-.27.12-.56.18-.86.18-.44,0-.79-.11-1.05-.34s-.39-.54-.39-.92c0-.25.06-.46.18-.65.12-.18.29-.33.52-.44.26-.12.69-.2,1.3-.24.12,0,.21-.02.27-.02.04,0,.08-.02.14-.03.42-.08.62-.26.62-.54,0-.34-.08-.58-.25-.73-.17-.15-.44-.22-.83-.22s-.69.08-.9.24-.32.4-.34.72h-.5c.01-.44.17-.78.48-1.03s.73-.38,1.25-.38.92.11,1.19.34c.27.22.41.55.41.98v2.38c0,.18.02.29.07.34s.13.07.25.07c.04,0,.07,0,.1,0s.06,0,.09,0v.38c-.06.01-.13.02-.19.03-.06,0-.12.01-.17.01-.21,0-.36-.05-.47-.15-.1-.1-.15-.25-.15-.45v-.07ZM132.96,54.15c-.13.05-.31.09-.51.12-.21.03-.55.06-1.01.08-.32.08-.57.2-.73.36s-.25.34-.25.56c0,.25.09.45.26.59.18.15.42.22.72.22.46,0,.83-.12,1.11-.36.27-.24.41-.56.41-.98v-.6Z"/>
    <path class="cls-1" d="M134.69,56.43v-4.36h.49v.7c.16-.27.37-.47.61-.6.24-.13.52-.2.84-.2.3,0,.56.05.79.16.23.11.4.26.52.45.06.1.11.22.14.37.03.14.04.38.04.71v2.78h-.52v-2.7c0-.51-.08-.86-.24-1.04s-.43-.27-.83-.27-.73.13-.97.39c-.24.26-.35.61-.35,1.06v2.57h-.51Z"/>
    <path class="cls-1" d="M141.63,56.43v-6.04h3.95v.5h-3.4v2.2h3.11v.48h-3.11v2.36h3.5v.5h-4.05Z"/>
    <path class="cls-1" d="M146.63,56.43v-4.36h.49v.7c.16-.27.37-.47.61-.6.24-.13.52-.2.84-.2.3,0,.56.05.79.16.23.11.4.26.52.45.06.1.11.22.14.37.03.14.04.38.04.71v2.78h-.52v-2.7c0-.51-.08-.86-.24-1.04s-.43-.27-.83-.27-.73.13-.97.39c-.24.26-.35.61-.35,1.06v2.57h-.51Z"/>
    <path class="cls-1" d="M152.29,56.43l-1.64-4.36h.54l1.4,3.75,1.37-3.75h.52l-1.63,4.36h-.56Z"/>
    <path class="cls-1" d="M155.16,51.16v-.76h.5v.76h-.5ZM155.16,56.43v-4.36h.5v4.36h-.5Z"/>
    <path class="cls-1" d="M156.87,56.43v-4.36h.49v.76c.13-.29.3-.51.52-.66.22-.14.5-.22.82-.22h.06v.53h-.07c-.43,0-.76.13-.98.39-.22.26-.33.64-.33,1.15v2.4h-.52Z"/>
    <path class="cls-1" d="M159.26,54.26c0-.73.17-1.29.52-1.69.35-.4.84-.6,1.47-.6s1.13.2,1.48.6.53.97.53,1.69-.18,1.29-.52,1.68c-.35.4-.85.6-1.48.6s-1.12-.2-1.47-.6c-.35-.4-.52-.96-.52-1.69ZM159.78,54.26c0,.58.13,1.04.39,1.36.26.32.62.48,1.09.48s.84-.16,1.09-.48c.26-.32.39-.77.39-1.36s-.13-1.05-.39-1.37-.62-.48-1.09-.48-.83.16-1.09.48c-.26.32-.39.78-.39,1.36Z"/>
    <path class="cls-1" d="M164.2,56.43v-4.36h.49v.7c.16-.27.37-.47.61-.6.24-.13.52-.2.84-.2.3,0,.56.05.79.16.23.11.4.26.52.45.06.1.11.22.14.37.03.14.04.38.04.71v2.78h-.52v-2.7c0-.51-.08-.86-.24-1.04s-.43-.27-.83-.27-.73.13-.97.39c-.24.26-.35.61-.35,1.06v2.57h-.51Z"/>
    <path class="cls-1" d="M168.76,56.43v-4.36h.47v.72c.15-.27.34-.47.58-.62.24-.14.51-.22.81-.22.32,0,.59.07.81.22.22.15.36.36.43.63.14-.28.34-.49.58-.64s.51-.22.83-.22c.47,0,.83.12,1.06.35.23.24.35.59.35,1.08v3.04h-.51v-3c0-.37-.07-.63-.21-.79-.14-.16-.38-.24-.7-.24-.39,0-.69.12-.93.36s-.35.55-.35.93v2.73h-.5v-2.95c0-.36-.08-.63-.23-.8-.15-.18-.38-.26-.69-.26-.38,0-.69.12-.93.36-.24.24-.35.56-.35.95v2.69h-.5Z"/>
    <path class="cls-1" d="M176.09,54.35v.02c0,.53.13.96.38,1.27.26.32.6.47,1.03.47.34,0,.63-.09.86-.28.23-.18.37-.44.42-.76h.5c-.06.44-.25.8-.57,1.06-.33.27-.74.4-1.24.4-.59,0-1.06-.2-1.39-.6-.34-.4-.5-.96-.5-1.67s.17-1.29.51-1.7c.34-.41.81-.61,1.41-.61s1.04.19,1.37.58c.33.39.49.93.49,1.63v.17h-3.26ZM176.09,53.95h2.73c-.02-.48-.15-.85-.39-1.13-.24-.27-.56-.41-.95-.41s-.72.14-.97.42c-.25.28-.39.65-.41,1.12Z"/>
    <path class="cls-1" d="M180.27,56.43v-4.36h.49v.7c.16-.27.37-.47.61-.6.24-.13.52-.2.84-.2.3,0,.56.05.79.16.23.11.4.26.52.45.06.1.11.22.14.37.03.14.04.38.04.71v2.78h-.52v-2.7c0-.51-.08-.86-.24-1.04s-.43-.27-.83-.27-.73.13-.97.39c-.24.26-.35.61-.35,1.06v2.57h-.51Z"/>
    <path class="cls-1" d="M185.49,50.83v1.25h.81v.41h-.81v3.18c0,.19.02.31.07.37s.13.09.25.09c.05,0,.11,0,.18-.01s.17-.03.31-.06v.4c-.12.03-.23.06-.33.07s-.2.02-.29.02c-.25,0-.43-.06-.53-.19-.1-.13-.16-.36-.16-.69v-3.18h-.59v-.41h.59v-1.25h.5Z"/>
    <path class="cls-1" d="M188.8,56.43l2.29-6.04h.66l2.29,6.04h-.58l-.68-1.86h-2.71l-.7,1.86h-.58ZM190.25,54.09h2.34l-1.17-3.11-1.17,3.11Z"/>
    <path class="cls-1" d="M198.35,52.08v4.13c0,.66-.17,1.16-.52,1.5-.35.34-.86.51-1.54.51-.51,0-.92-.11-1.23-.34s-.48-.54-.51-.93h.52c.03.26.15.47.36.61.21.14.5.21.86.21.52,0,.92-.13,1.18-.39.26-.26.4-.64.4-1.16v-.54c-.18.29-.39.51-.65.65-.25.14-.54.22-.87.22-.6,0-1.07-.2-1.41-.61s-.52-.97-.52-1.68.17-1.26.52-1.68c.35-.41.82-.62,1.41-.62.34,0,.63.07.88.22.25.15.46.36.63.65v-.75h.5ZM194.94,54.26c0,.58.13,1.03.39,1.36s.62.49,1.08.49.83-.16,1.09-.49c.26-.32.39-.78.39-1.36s-.13-1.04-.39-1.36c-.26-.32-.62-.48-1.09-.48s-.83.16-1.09.48-.38.78-.38,1.37Z"/>
    <path class="cls-1" d="M199.8,54.35v.02c0,.53.13.96.38,1.27.26.32.6.47,1.03.47.34,0,.63-.09.86-.28.23-.18.37-.44.42-.76h.5c-.06.44-.25.8-.57,1.06-.33.27-.74.4-1.24.4-.59,0-1.06-.2-1.39-.6-.34-.4-.5-.96-.5-1.67s.17-1.29.51-1.7c.34-.41.81-.61,1.41-.61s1.04.19,1.37.58c.33.39.49.93.49,1.63v.17h-3.26ZM199.81,53.95h2.73c-.02-.48-.15-.85-.39-1.13-.24-.27-.56-.41-.95-.41s-.72.14-.97.42c-.25.28-.39.65-.41,1.12Z"/>
    <path class="cls-1" d="M203.99,56.43v-4.36h.49v.7c.16-.27.37-.47.61-.6.24-.13.52-.2.84-.2.3,0,.56.05.79.16.23.11.4.26.52.45.06.1.11.22.14.37.03.14.04.38.04.71v2.78h-.52v-2.7c0-.51-.08-.86-.24-1.04s-.43-.27-.83-.27-.73.13-.97.39c-.24.26-.35.61-.35,1.06v2.57h-.51Z"/>
    <path class="cls-1" d="M211.54,54.93h.5c-.05.5-.23.89-.55,1.18s-.74.43-1.26.43c-.59,0-1.06-.2-1.4-.61-.34-.4-.51-.95-.51-1.65s.17-1.29.52-1.7c.35-.41.82-.62,1.42-.62.49,0,.89.14,1.21.41.32.27.49.64.51,1.08h-.48c-.04-.32-.17-.57-.4-.76-.23-.19-.5-.29-.83-.29-.44,0-.78.16-1.04.49s-.38.77-.38,1.34.13,1.03.39,1.37c.26.34.61.5,1.04.5.34,0,.62-.11.85-.32.23-.21.37-.5.42-.87Z"/>
    <path class="cls-1" d="M214.26,57.28c-.13.34-.28.58-.46.72-.18.14-.42.22-.71.22-.07,0-.13,0-.19-.01s-.11-.02-.16-.03v-.46c.09.01.17.02.22.03.05,0,.1.01.13.01.18,0,.33-.05.43-.14.1-.1.21-.29.33-.59l.2-.55-1.7-4.4h.54l1.41,3.72,1.38-3.72h.52l-1.93,5.2Z"/>
  </g>
</svg>