<?xml version="1.0" encoding="utf-8"?>
<!-- Generator: Adobe Illustrator 27.0.0, SVG Export Plug-In . SVG Version: 6.00 Build 0)  -->
<svg version="1.1" id="Layer_4" xmlns="http://www.w3.org/2000/svg" xmlns:xlink="http://www.w3.org/1999/xlink" x="0px" y="0px"
	 viewBox="0 0 649.31 110.09" style="enable-background:new 0 0 649.31 110.09;" xml:space="preserve">
<style type="text/css">
	.st0{fill:#58595B;}
	.st1{fill:#20C4F4;}
	.st2{fill:#59AA47;}
	.st3{fill:#005446;}
	.st4{fill:#009EAC;}
</style>
<g>
	<g>
		<path class="st0" d="M143.58,35.01v-0.09c0-8.79,6.63-16,16.13-16c4.64,0,7.78,1.24,10.34,3.14c0.71,0.53,1.33,1.5,1.33,2.7
			c0,1.86-1.5,3.31-3.36,3.31c-0.93,0-1.55-0.35-2.03-0.66c-1.9-1.41-3.89-2.21-6.32-2.21c-5.21,0-8.97,4.33-8.97,9.63v0.09
			c0,5.3,3.67,9.72,8.97,9.72c2.87,0,4.77-0.88,6.72-2.43c0.53-0.44,1.24-0.75,2.03-0.75c1.72,0,3.18,1.41,3.18,3.14
			c0,1.06-0.53,1.9-1.15,2.43c-2.78,2.43-6.05,3.89-11,3.89C150.35,50.92,143.59,43.89,143.58,35.01L143.58,35.01z"/>
		<path class="st0" d="M177.65,56.97c-0.97-0.35-2.12-1.15-2.12-2.78s1.28-2.74,2.65-2.74c0.53,0,0.84,0.09,1.1,0.18
			c0.57,0.18,0.93,0.27,1.41,0.27c1.19,0,1.77-0.22,2.39-1.41l0.22-0.53l-8.09-18.73c-0.18-0.44-0.35-1.1-0.35-1.55
			c0-1.9,1.46-3.23,3.31-3.23c1.68,0,2.65,0.93,3.23,2.52l5.13,13.79l4.95-13.74c0.53-1.41,1.5-2.56,3.23-2.56s3.18,1.33,3.18,3.09
			c0,0.53-0.18,1.28-0.31,1.59l-8.26,19.84c-1.99,4.82-3.98,6.63-8,6.63c-1.5,0-2.56-0.22-3.67-0.62V56.97z"/>
		<path class="st0" d="M203.46,32.44h-0.27c-1.55,0-2.78-1.19-2.78-2.74s1.24-2.78,2.78-2.78h0.27v-1.5c0-2.61,0.66-4.51,1.9-5.74
			c1.24-1.24,3.05-1.86,5.44-1.86c1.06,0,1.99,0.04,2.74,0.18c1.15,0.18,2.3,1.19,2.3,2.7s-1.24,2.78-2.74,2.78h-0.57
			c-1.55,0-2.43,0.8-2.43,2.56v0.93h2.92c1.55,0,2.78,1.19,2.78,2.74s-1.24,2.74-2.78,2.74h-2.83V47.3c0,1.86-1.5,3.36-3.36,3.36
			s-3.36-1.5-3.36-3.36V32.45L203.46,32.44z"/>
		<path class="st0" d="M217.6,38.67v-0.09c0-6.8,5.48-12.33,12.86-12.33s12.77,5.44,12.77,12.24v0.09c0,6.8-5.48,12.33-12.86,12.33
			S217.6,45.47,217.6,38.67z M236.6,38.67v-0.09c0-3.49-2.52-6.54-6.23-6.54s-6.14,2.96-6.14,6.45v0.09c0,3.49,2.52,6.54,6.23,6.54
			S236.6,42.16,236.6,38.67z"/>
		<path class="st0" d="M258.2,50.91c-7.11,0-12.37-4.99-12.37-12.24v-0.09c0-6.76,4.82-12.33,11.71-12.33c7.91,0,11.4,6.5,11.4,11.4
			c0,1.94-1.37,3.23-3.14,3.23h-13.3c0.66,3.05,2.78,4.64,5.79,4.64c1.86,0,3.4-0.57,4.77-1.59c0.49-0.35,0.93-0.53,1.63-0.53
			c1.5,0,2.61,1.15,2.61,2.65c0,0.88-0.4,1.55-0.88,1.99C264.34,49.81,261.65,50.91,258.2,50.91L258.2,50.91z M262.53,36.68
			c-0.4-3-2.17-5.04-4.99-5.04s-4.6,1.99-5.13,5.04H262.53z"/>
		<path class="st0" d="M273.4,43.67V32.45h-0.22c-1.59,0-2.87-1.28-2.87-2.87s1.28-2.87,2.87-2.87h0.22v-2.96
			c0-1.86,1.5-3.36,3.36-3.36s3.36,1.5,3.36,3.36v2.96h2.96c1.59,0,2.87,1.28,2.87,2.87s-1.28,2.87-2.87,2.87h-2.96v10.12
			c0,1.55,0.66,2.3,2.17,2.3c0.22,0,0.66-0.04,0.79-0.04c1.5,0,2.78,1.24,2.78,2.78c0,1.19-0.8,2.17-1.72,2.52
			c-1.24,0.49-2.39,0.66-3.84,0.66C276.19,50.79,273.41,49.15,273.4,43.67L273.4,43.67z"/>
		<path class="st0" d="M289.49,21.22c0-1.86,1.5-3.36,3.36-3.36s3.36,1.5,3.36,3.36v8.84c1.55-1.99,3.53-3.8,6.94-3.8
			c5.08,0,8.04,3.36,8.04,8.79v12.24c0,1.86-1.5,3.36-3.36,3.36s-3.36-1.5-3.36-3.36V37.17c0-3.18-1.5-4.82-4.07-4.82
			s-4.2,1.63-4.2,4.82v10.12c0,1.86-1.5,3.36-3.36,3.36s-3.36-1.5-3.36-3.36L289.49,21.22L289.49,21.22z"/>
	</g>
	<g>
		<path class="st0" d="M328.57,22.41c0-1.9,1.5-3.4,3.4-3.4h0.71c1.64,0,2.61,0.8,3.53,1.99l13.12,17.23V22.28
			c0-1.86,1.5-3.36,3.36-3.36s3.36,1.5,3.36,3.36v24.61c0,1.9-1.5,3.4-3.4,3.4h-0.22c-1.63,0-2.61-0.79-3.53-1.99l-13.61-17.85
			v16.57c0,1.86-1.5,3.36-3.36,3.36s-3.36-1.5-3.36-3.36C328.57,47.02,328.57,22.41,328.57,22.41z"/>
		<path class="st0" d="M359.99,43.31v-0.09c0-5.17,3.93-7.56,9.54-7.56c2.39,0,4.11,0.4,5.79,0.97v-0.4c0-2.78-1.72-4.33-5.08-4.33
			c-1.86,0-3.36,0.27-4.64,0.66c-0.4,0.13-0.66,0.18-0.97,0.18c-1.55,0-2.78-1.19-2.78-2.74c0-1.19,0.75-2.21,1.81-2.61
			c2.12-0.8,4.42-1.24,7.56-1.24c3.67,0,6.32,0.97,8,2.65c1.77,1.77,2.56,4.37,2.56,7.56v10.78c0,1.81-1.46,3.23-3.27,3.23
			c-1.94,0-3.23-1.37-3.23-2.78v-0.04c-1.63,1.81-3.89,3-7.16,3c-4.46,0-8.13-2.56-8.13-7.25V43.31z M375.41,41.76v-1.19
			c-1.15-0.53-2.65-0.88-4.29-0.88c-2.87,0-4.64,1.15-4.64,3.27v0.09c0,1.81,1.5,2.87,3.67,2.87
			C373.29,45.92,375.41,44.2,375.41,41.76L375.41,41.76z"/>
		<path class="st0" d="M387.39,43.4V32.18h-0.22c-1.59,0-2.87-1.28-2.87-2.87s1.28-2.87,2.87-2.87h0.22v-2.96
			c0-1.86,1.5-3.36,3.36-3.36s3.36,1.5,3.36,3.36v2.96h2.96c1.59,0,2.87,1.28,2.87,2.87s-1.28,2.87-2.87,2.87h-2.96V42.3
			c0,1.55,0.66,2.3,2.17,2.3c0.22,0,0.66-0.04,0.79-0.04c1.5,0,2.78,1.24,2.78,2.78c0,1.19-0.8,2.17-1.72,2.52
			c-1.24,0.49-2.39,0.66-3.84,0.66C390.18,50.52,387.4,48.88,387.39,43.4L387.39,43.4z"/>
		<path class="st0" d="M425.43,47.03c0,1.86-1.5,3.36-3.36,3.36s-3.36-1.5-3.36-3.36v-0.27c-1.55,1.99-3.53,3.8-6.94,3.8
			c-5.08,0-8.04-3.36-8.04-8.79V29.53c0-1.86,1.5-3.36,3.36-3.36s3.36,1.5,3.36,3.36v10.12c0,3.18,1.5,4.82,4.07,4.82
			s4.2-1.63,4.2-4.82V29.53c0-1.86,1.5-3.36,3.36-3.36s3.36,1.5,3.36,3.36L425.43,47.03L425.43,47.03z"/>
		<path class="st0" d="M430.51,29.53c0-1.86,1.5-3.36,3.36-3.36s3.36,1.5,3.36,3.36v1.06c0.97-2.3,2.56-4.42,4.55-4.42
			s3.27,1.37,3.27,3.27c0,1.77-1.15,2.83-2.52,3.14c-3.4,0.8-5.3,3.4-5.3,8.17v6.27c0,1.86-1.5,3.36-3.36,3.36s-3.36-1.5-3.36-3.36
			v-17.5V29.53z"/>
		<path class="st0" d="M447.7,20.78c0-1.94,1.63-3.14,3.76-3.14s3.76,1.19,3.76,3.14v0.09c0,1.94-1.63,3.18-3.76,3.18
			s-3.76-1.24-3.76-3.18V20.78z M448.1,29.53c0-1.86,1.5-3.36,3.36-3.36s3.36,1.5,3.36,3.36v17.5c0,1.86-1.5,3.36-3.36,3.36
			s-3.36-1.5-3.36-3.36C448.1,47.03,448.1,29.53,448.1,29.53z"/>
		<path class="st0" d="M457.82,38.41v-0.09c0-6.8,5.48-12.33,12.86-12.33s12.77,5.44,12.77,12.24v0.09c0,6.8-5.48,12.33-12.86,12.33
			S457.82,45.21,457.82,38.41z M476.82,38.41v-0.09c0-3.49-2.52-6.54-6.23-6.54s-6.14,2.96-6.14,6.45v0.09
			c0,3.49,2.52,6.54,6.23,6.54S476.82,41.9,476.82,38.41z"/>
		<path class="st0" d="M486.94,20.96c0-1.86,1.5-3.36,3.36-3.36s3.36,1.5,3.36,3.36v26.07c0,1.86-1.5,3.36-3.36,3.36
			s-3.36-1.5-3.36-3.36V20.96z"/>
	</g>
	<g>
		<path class="st0" d="M509.38,34.8v-0.09c0-8.83,6.6-16.14,15.79-16.14c5.04,0,8.25,1.65,11.15,4.06c0.36,0.31,0.71,0.8,0.71,1.43
			c0,0.94-0.85,1.74-1.78,1.74c-0.49,0-0.89-0.22-1.16-0.4c-2.41-2.14-5.13-3.57-8.96-3.57c-6.91,0-12.08,5.62-12.08,12.8v0.09
			c0,7.22,5.22,12.89,12.08,12.89c3.88,0,6.6-1.34,9.28-3.79c0.27-0.27,0.67-0.49,1.11-0.49c0.89,0,1.69,0.8,1.69,1.69
			c0,0.53-0.27,0.98-0.58,1.25c-3.08,2.81-6.47,4.59-11.59,4.59C516.03,50.86,509.39,43.77,509.38,34.8L509.38,34.8z"/>
		<path class="st0" d="M540.73,56.92c-0.53-0.22-1.07-0.67-1.07-1.47c0-0.85,0.71-1.47,1.47-1.47c0.31,0,0.58,0.09,0.85,0.18
			c0.67,0.22,1.34,0.4,2.5,0.4c2.14,0,3.39-1.29,4.64-4.1l0.18-0.36l-9.63-20.42c-0.13-0.31-0.22-0.62-0.22-0.94
			c0-0.94,0.76-1.69,1.74-1.69s1.43,0.58,1.74,1.34l8.03,18.11l7.14-18.15c0.27-0.71,0.76-1.29,1.65-1.29
			c0.94,0,1.69,0.76,1.69,1.69c0,0.27-0.09,0.58-0.18,0.85l-9.01,21.49c-2.01,4.77-4.24,6.51-7.72,6.51c-1.52,0-2.63-0.27-3.79-0.67
			L540.73,56.92z"/>
		<path class="st0" d="M565.34,28.78c0-0.94,0.76-1.74,1.69-1.74s1.74,0.76,1.74,1.74v2.36c1.52-2.27,3.57-4.37,7.45-4.37
			s6.15,2.01,7.4,4.59c1.65-2.54,4.1-4.59,8.12-4.59c5.31,0,8.56,3.57,8.56,9.28V48.8c0,0.98-0.76,1.74-1.69,1.74
			s-1.74-0.76-1.74-1.74V36.85c0-4.46-2.23-6.96-5.98-6.96c-3.48,0-6.33,2.59-6.33,7.14V48.8c0,0.98-0.76,1.74-1.74,1.74
			s-1.69-0.76-1.69-1.74V36.76c0-4.33-2.27-6.87-5.93-6.87s-6.42,3.03-6.42,7.27V48.8c0,0.98-0.71,1.74-1.69,1.74
			s-1.74-0.76-1.74-1.74V28.78L565.34,28.78z"/>
		<path class="st0" d="M604.14,28.78c0-0.94,0.76-1.74,1.69-1.74s1.74,0.76,1.74,1.74v4.33c1.69-3.84,5.04-6.15,7.94-6.15
			c1.03,0,1.69,0.76,1.69,1.74s-0.62,1.6-1.52,1.74c-4.46,0.53-8.12,3.88-8.12,10.52v7.85c0,0.94-0.71,1.74-1.69,1.74
			s-1.74-0.76-1.74-1.74V28.79L604.14,28.78z"/>
		<path class="st0" d="M639.91,48.8c0,0.94-0.71,1.74-1.69,1.74s-1.69-0.76-1.69-1.74v-2.5c-1.56,2.5-3.92,4.5-7.89,4.5
			c-5.57,0-8.83-3.75-8.83-9.23v-12.8c0-0.98,0.71-1.74,1.69-1.74s1.74,0.76,1.74,1.74v11.95c0,4.28,2.32,6.96,6.38,6.96
			s6.91-2.9,6.91-7.22V28.78c0-0.98,0.71-1.74,1.69-1.74s1.69,0.76,1.69,1.74L639.91,48.8L639.91,48.8z"/>
	</g>
	<g>
		<path class="st0" d="M144.04,63.74c0-1.9,1.5-3.4,3.4-3.4h0.71c1.64,0,2.61,0.8,3.54,1.99l13.13,17.24V63.61
			c0-1.86,1.5-3.36,3.36-3.36s3.36,1.5,3.36,3.36v24.62c0,1.9-1.5,3.4-3.4,3.4h-0.22c-1.64,0-2.61-0.8-3.54-1.99l-13.61-17.86v16.58
			c0,1.86-1.5,3.36-3.36,3.36s-3.36-1.5-3.36-3.36V63.74L144.04,63.74z"/>
		<path class="st0" d="M174.84,84.65v-0.09c0-5.17,3.93-7.56,9.55-7.56c2.39,0,4.11,0.4,5.79,0.97v-0.4c0-2.78-1.72-4.33-5.08-4.33
			c-1.86,0-3.36,0.27-4.64,0.66c-0.4,0.13-0.66,0.18-0.97,0.18c-1.55,0-2.79-1.19-2.79-2.74c0-1.19,0.75-2.21,1.81-2.61
			c2.12-0.8,4.42-1.24,7.56-1.24c3.67,0,6.32,0.97,8,2.65c1.77,1.77,2.56,4.38,2.56,7.56v10.78c0,1.81-1.46,3.23-3.27,3.23
			c-1.94,0-3.23-1.37-3.23-2.78v-0.04c-1.64,1.81-3.89,3.01-7.16,3.01C178.51,91.9,174.84,89.34,174.84,84.65L174.84,84.65z
			 M190.27,83.1v-1.19c-1.15-0.53-2.65-0.88-4.29-0.88c-2.87,0-4.64,1.15-4.64,3.27v0.09c0,1.81,1.5,2.87,3.67,2.87
			C188.15,87.26,190.27,85.54,190.27,83.1L190.27,83.1z"/>
		<path class="st0" d="M202.38,84.74V73.51h-0.22c-1.59,0-2.87-1.28-2.87-2.87s1.28-2.87,2.87-2.87h0.22v-2.96
			c0-1.86,1.5-3.36,3.36-3.36s3.36,1.5,3.36,3.36v2.96h2.96c1.59,0,2.87,1.28,2.87,2.87s-1.28,2.87-2.87,2.87h-2.96v10.12
			c0,1.55,0.66,2.3,2.17,2.3c0.22,0,0.66-0.04,0.8-0.04c1.5,0,2.79,1.24,2.79,2.78c0,1.19-0.8,2.17-1.72,2.52
			c-1.24,0.49-2.39,0.66-3.85,0.66c-4.11,0-6.9-1.64-6.9-7.12L202.38,84.74z"/>
		<path class="st0" d="M240.27,88.36c0,1.86-1.5,3.36-3.36,3.36s-3.36-1.5-3.36-3.36v-0.27c-1.55,1.99-3.54,3.8-6.94,3.8
			c-5.08,0-8.05-3.36-8.05-8.8V70.85c0-1.86,1.5-3.36,3.36-3.36s3.36,1.5,3.36,3.36v10.12c0,3.18,1.5,4.82,4.07,4.82
			s4.2-1.64,4.2-4.82V70.85c0-1.86,1.5-3.36,3.36-3.36s3.36,1.5,3.36,3.36V88.36L240.27,88.36z"/>
		<path class="st0" d="M245.7,70.86c0-1.86,1.5-3.36,3.36-3.36s3.36,1.5,3.36,3.36v1.06c0.97-2.3,2.56-4.42,4.55-4.42
			c1.99,0,3.27,1.37,3.27,3.27c0,1.77-1.15,2.83-2.52,3.14c-3.4,0.8-5.3,3.4-5.3,8.18v6.28c0,1.86-1.5,3.36-3.36,3.36
			s-3.36-1.5-3.36-3.36V70.86L245.7,70.86z"/>
		<path class="st0" d="M261.09,84.65v-0.09c0-5.17,3.93-7.56,9.55-7.56c2.39,0,4.11,0.4,5.79,0.97v-0.4c0-2.78-1.72-4.33-5.08-4.33
			c-1.86,0-3.36,0.27-4.64,0.66c-0.4,0.13-0.66,0.18-0.97,0.18c-1.55,0-2.79-1.19-2.79-2.74c0-1.19,0.75-2.21,1.81-2.61
			c2.12-0.8,4.42-1.24,7.56-1.24c3.67,0,6.32,0.97,8,2.65c1.77,1.77,2.56,4.38,2.56,7.56v10.78c0,1.81-1.46,3.23-3.27,3.23
			c-1.94,0-3.23-1.37-3.23-2.78v-0.04c-1.64,1.81-3.89,3.01-7.16,3.01C264.76,91.9,261.09,89.34,261.09,84.65L261.09,84.65z
			 M276.52,83.1v-1.19c-1.15-0.53-2.65-0.88-4.29-0.88c-2.87,0-4.64,1.15-4.64,3.27v0.09c0,1.81,1.5,2.87,3.67,2.87
			C274.4,87.26,276.52,85.54,276.52,83.1L276.52,83.1z"/>
		<path class="st0" d="M287.21,62.28c0-1.86,1.5-3.36,3.36-3.36s3.36,1.5,3.36,3.36v26.08c0,1.86-1.5,3.36-3.36,3.36
			s-3.36-1.5-3.36-3.36V62.28z"/>
	</g>
	<g>
		<path class="st0" d="M308.28,63.78c0-1.9,1.5-3.4,3.4-3.4h10.74c3.93,0,6.98,1.11,9.02,3.14c1.72,1.72,2.65,4.15,2.65,7.07v0.09
			c0,4.86-2.43,7.87-6.19,9.42l4.73,5.75c0.66,0.84,1.11,1.55,1.11,2.61c0,1.9-1.59,3.14-3.23,3.14c-1.55,0-2.56-0.75-3.36-1.77
			l-6.63-8.4h-5.44v6.76c0,1.9-1.5,3.4-3.4,3.4s-3.4-1.5-3.4-3.4L308.28,63.78L308.28,63.78z M321.98,75.41
			c3.32,0,5.22-1.77,5.22-4.38v-0.09c0-2.92-2.03-4.42-5.35-4.42h-6.76v8.88L321.98,75.41L321.98,75.41z"/>
		<path class="st0" d="M348.91,91.85c-7.12,0-12.38-4.99-12.38-12.24v-0.09c0-6.76,4.82-12.33,11.71-12.33
			c7.91,0,11.4,6.5,11.4,11.4c0,1.94-1.37,3.23-3.14,3.23h-13.31c0.66,3.05,2.79,4.64,5.79,4.64c1.86,0,3.4-0.57,4.77-1.59
			c0.49-0.35,0.93-0.53,1.64-0.53c1.5,0,2.61,1.15,2.61,2.65c0,0.88-0.4,1.55-0.88,1.99c-2.08,1.77-4.77,2.87-8.22,2.87
			L348.91,91.85z M353.24,77.62c-0.4-3.01-2.17-5.04-5-5.04s-4.6,1.99-5.13,5.04h10.12H353.24z"/>
		<path class="st0" d="M363.63,89.07c-0.71-0.44-1.28-1.24-1.28-2.3c0-1.5,1.15-2.65,2.65-2.65c0.49,0,0.97,0.13,1.33,0.35
			c2.25,1.41,4.51,2.12,6.41,2.12s2.83-0.71,2.83-1.77v-0.09c0-1.46-2.3-1.95-4.91-2.74c-3.32-0.97-7.07-2.52-7.07-7.12v-0.09
			c0-4.82,3.89-7.51,8.66-7.51c2.47,0,5.04,0.66,7.34,1.81c0.97,0.49,1.59,1.37,1.59,2.52c0,1.5-1.19,2.65-2.7,2.65
			c-0.49,0-0.8-0.09-1.24-0.31c-1.9-0.93-3.71-1.5-5.13-1.5c-1.64,0-2.48,0.71-2.48,1.64v0.09c0,1.33,2.25,1.94,4.82,2.83
			c3.32,1.11,7.16,2.7,7.16,7.03v0.09c0,5.26-3.93,7.65-9.06,7.65c-2.92,0-6.06-0.84-8.93-2.7H363.63z"/>
		<path class="st0" d="M383.56,79.61v-0.09c0-6.81,5.48-12.33,12.86-12.33s12.77,5.44,12.77,12.24v0.09
			c0,6.81-5.48,12.33-12.86,12.33S383.56,86.41,383.56,79.61z M402.57,79.61v-0.09c0-3.49-2.52-6.54-6.23-6.54s-6.14,2.96-6.14,6.45
			v0.09c0,3.49,2.52,6.54,6.23,6.54S402.57,83.1,402.57,79.61z"/>
		<path class="st0" d="M433.87,88.23c0,1.86-1.5,3.36-3.36,3.36s-3.36-1.5-3.36-3.36v-0.27c-1.55,1.99-3.54,3.8-6.94,3.8
			c-5.08,0-8.05-3.36-8.05-8.8V70.72c0-1.86,1.5-3.36,3.36-3.36s3.36,1.5,3.36,3.36v10.12c0,3.18,1.5,4.82,4.07,4.82
			s4.2-1.64,4.2-4.82V70.72c0-1.86,1.5-3.36,3.36-3.36s3.36,1.5,3.36,3.36V88.23L433.87,88.23z"/>
		<path class="st0" d="M438.29,70.72c0-1.86,1.5-3.36,3.36-3.36s3.36,1.5,3.36,3.36v1.06c0.97-2.3,2.56-4.42,4.55-4.42
			s3.27,1.37,3.27,3.27c0,1.77-1.15,2.83-2.52,3.14c-3.4,0.8-5.3,3.4-5.3,8.18v6.28c0,1.86-1.5,3.36-3.36,3.36s-3.36-1.5-3.36-3.36
			V70.72L438.29,70.72z"/>
		<path class="st0" d="M454.51,79.61v-0.09c0-6.76,5.17-12.33,12.42-12.33c3.58,0,6.1,0.97,8.09,2.65c0.44,0.35,1.06,1.15,1.06,2.3
			c0,1.68-1.37,3.01-3.05,3.01c-0.88,0-1.55-0.35-1.95-0.66c-1.19-0.93-2.43-1.5-4.2-1.5c-3.36,0-5.75,2.96-5.75,6.45v0.09
			c0,3.62,2.34,6.54,6.01,6.54c1.77,0,3.14-0.62,4.42-1.64c0.35-0.26,1.02-0.62,1.81-0.62c1.59,0,2.83,1.28,2.83,2.87
			c0,0.88-0.4,1.59-0.97,2.12c-1.99,1.81-4.51,3.05-8.4,3.05C459.71,91.85,454.5,86.37,454.51,79.61L454.51,79.61z"/>
		<path class="st0" d="M490.49,91.85c-7.12,0-12.38-4.99-12.38-12.24v-0.09c0-6.76,4.82-12.33,11.71-12.33
			c7.91,0,11.4,6.5,11.4,11.4c0,1.94-1.37,3.23-3.14,3.23h-13.31c0.66,3.05,2.79,4.64,5.79,4.64c1.86,0,3.4-0.57,4.77-1.59
			c0.49-0.35,0.93-0.53,1.64-0.53c1.5,0,2.61,1.15,2.61,2.65c0,0.88-0.4,1.55-0.88,1.99c-2.08,1.77-4.77,2.87-8.22,2.87
			L490.49,91.85z M494.82,77.62c-0.4-3.01-2.17-5.04-5-5.04s-4.6,1.99-5.13,5.04h10.12H494.82z"/>
		<path class="st0" d="M503.8,89.07c-0.71-0.44-1.28-1.24-1.28-2.3c0-1.5,1.15-2.65,2.65-2.65c0.49,0,0.97,0.13,1.33,0.35
			c2.25,1.41,4.51,2.12,6.41,2.12c1.9,0,2.83-0.71,2.83-1.77v-0.09c0-1.46-2.3-1.95-4.91-2.74c-3.32-0.97-7.07-2.52-7.07-7.12v-0.09
			c0-4.82,3.89-7.51,8.66-7.51c2.47,0,5.04,0.66,7.34,1.81c0.97,0.49,1.59,1.37,1.59,2.52c0,1.5-1.19,2.65-2.7,2.65
			c-0.49,0-0.8-0.09-1.24-0.31c-1.9-0.93-3.71-1.5-5.13-1.5c-1.64,0-2.48,0.71-2.48,1.64v0.09c0,1.33,2.25,1.94,4.82,2.83
			c3.32,1.11,7.16,2.7,7.16,7.03v0.09c0,5.26-3.93,7.65-9.06,7.65c-2.92,0-6.06-0.84-8.93-2.7H503.8z"/>
	</g>
	<g>
		<path class="st0" d="M531.73,62.74c-0.09-0.27-0.18-0.53-0.18-0.8c0-0.93,0.84-1.77,1.81-1.77c0.88,0,1.55,0.66,1.81,1.46
			l8.53,24.58l8.09-24.66c0.26-0.8,0.8-1.37,1.72-1.37h0.22c0.88,0,1.46,0.57,1.72,1.37l8.09,24.66l8.58-24.66
			c0.26-0.8,0.84-1.37,1.68-1.37c0.93,0,1.77,0.84,1.77,1.72c0,0.27-0.13,0.57-0.22,0.84l-9.9,27.49c-0.31,0.88-0.93,1.5-1.81,1.5
			h-0.27c-0.88,0-1.5-0.62-1.81-1.5l-8.04-23.78l-8,23.78c-0.31,0.88-0.93,1.5-1.81,1.5h-0.26c-0.88,0-1.5-0.57-1.81-1.5l-9.9-27.49
			L531.73,62.74z"/>
		<path class="st0" d="M574.48,84.7v-0.09c0-4.82,3.98-7.38,9.77-7.38c2.92,0,5,0.4,7.03,0.97v-0.8c0-4.11-2.52-6.23-6.81-6.23
			c-2.3,0-4.24,0.53-5.92,1.28c-0.22,0.09-0.44,0.13-0.62,0.13c-0.8,0-1.5-0.66-1.5-1.46c0-0.71,0.49-1.24,0.93-1.41
			c2.25-0.97,4.55-1.55,7.47-1.55c3.23,0,5.7,0.84,7.38,2.52c1.55,1.55,2.34,3.76,2.34,6.67v12.51c0,0.97-0.71,1.68-1.64,1.68
			s-1.64-0.71-1.64-1.59v-2.08c-1.59,2.08-4.24,3.93-8.27,3.93c-4.24,0-8.53-2.43-8.53-7.12L574.48,84.7z M591.32,82.93v-2.21
			c-1.68-0.49-3.93-0.97-6.72-0.97c-4.29,0-6.67,1.86-6.67,4.73v0.09c0,2.87,2.65,4.55,5.75,4.55c4.2,0,7.65-2.56,7.65-6.19H591.32z
			"/>
		<path class="st0" d="M600.11,60.57c0-0.93,0.75-1.72,1.68-1.72s1.72,0.8,1.72,1.72v29.26c0,0.97-0.71,1.72-1.68,1.72
			s-1.72-0.75-1.72-1.72V60.57z"/>
		<path class="st0" d="M619.25,91.87c-6.28,0-11.4-4.82-11.4-11.89v-0.09c0-6.59,4.64-11.89,10.96-11.89
			c6.76,0,10.61,5.52,10.61,11.58c0,0.93-0.75,1.59-1.59,1.59H611.3c0.49,4.95,3.98,7.74,8.04,7.74c2.83,0,4.91-1.11,6.59-2.65
			c0.26-0.22,0.57-0.4,0.97-0.4c0.84,0,1.5,0.66,1.5,1.46c0,0.4-0.18,0.8-0.53,1.11C625.7,90.51,623.14,91.88,619.25,91.87
			L619.25,91.87z M626.01,78.65c-0.35-4.15-2.74-7.78-7.29-7.78c-3.98,0-6.98,3.32-7.43,7.78H626.01z"/>
		<path class="st0" d="M632.38,88.9c-0.31-0.22-0.62-0.66-0.62-1.24c0-0.8,0.66-1.46,1.5-1.46c0.31,0,0.62,0.09,0.84,0.27
			c2.34,1.59,4.77,2.43,7.25,2.43c2.74,0,4.73-1.41,4.73-3.62v-0.09c0-2.3-2.7-3.18-5.7-4.02c-3.58-1.02-7.56-2.25-7.56-6.45v-0.09
			c0-3.93,3.27-6.54,7.78-6.54c2.43,0,5.08,0.75,7.29,1.94c0.44,0.26,0.84,0.75,0.84,1.41c0,0.8-0.66,1.46-1.5,1.46
			c-0.31,0-0.57-0.09-0.75-0.18c-1.94-1.11-4.02-1.77-5.97-1.77c-2.7,0-4.42,1.41-4.42,3.32v0.09c0,2.17,2.83,3.01,5.88,3.93
			c3.54,1.06,7.34,2.43,7.34,6.54v0.09c0,4.33-3.58,6.85-8.13,6.85C638.17,91.77,634.86,90.66,632.38,88.9L632.38,88.9z"/>
	</g>
</g>
<g>
	<path class="st1" d="M1.4,32.67c0,0,0.65-1.19,1.72-2.22s1.95-1.51,1.95-1.51L52.76,1.4c3.23-1.87,7.22-1.87,10.45,0l34.93,20.17
		L40.16,55.05L1.4,32.67z"/>
	<path class="st2" d="M1.4,32.67c0,0-0.68,1.14-1.05,2.54S0,37.93,0,37.93V72.2c0,3.73,1.99,7.18,5.22,9.05l12.6,7.27l40.16-23.19
		L1.4,32.67z"/>
	<path class="st3" d="M114.56,77.42c0,0-0.65,1.19-1.72,2.22s-1.95,1.51-1.95,1.51L63.2,108.68c-3.23,1.87-7.22,1.87-10.45,0
		L17.82,88.51L75.8,55.03L114.56,77.42L114.56,77.42z"/>
	<path class="st4" d="M114.56,77.42c0,0,0.68-1.14,1.05-2.54s0.35-2.72,0.35-2.72V37.89c0-3.73-1.99-7.18-5.22-9.05l-12.6-7.27
		L57.98,44.76L114.56,77.42L114.56,77.42z"/>
</g>
</svg>
