<?xml version="1.0" encoding="UTF-8"?>
<svg xmlns="http://www.w3.org/2000/svg" version="1.1" viewBox="0 0 3315.42 595.28">
  <defs>
    <style>
      .cls-1 {
        fill: #076774;
      }
    </style>
  </defs>
  <!-- Generator: Adobe Illustrator 28.7.1, SVG Export Plug-In . SVG Version: 1.2.0 Build 142)  -->
  <g>
    <g id="Layer_1">
      <g>
        <g>
          <path class="cls-1" d="M237.45,125.46c0-62.69-50.82-113.5-113.51-113.5S10.44,62.77,10.44,125.46s50.82,113.51,113.5,113.51,113.51-50.82,113.51-113.51h0Z"/>
          <path class="cls-1" d="M288.45,55.69c97.02,1.04,175.5,79.37,176.78,176.34h41.42v-.13c0-120.52-97.69-218.23-218.2-218.26v42.04Z"/>
          <path class="cls-1" d="M288.36,494.45h.13c120.52,0,218.22-97.68,218.25-218.2l-218.48-.09.09,218.29Z"/>
          <path class="cls-1" d="M288.37,138.42c51.09,1.61,92.24,42.59,94.14,93.61h41.28c-1.03-74.29-61.11-134.3-135.42-135.24v41.63Z"/>
          <path class="cls-1" d="M719.37,429.62c-22.84-10.41-40.9-24.61-54.2-42.56-13.3-17.96-20.39-38.01-21.28-60.18h78.47c1.33,15.52,8.75,28.49,22.28,38.9,13.52,10.42,30.47,15.63,50.87,15.63s37.79-4.1,49.54-12.31c11.74-8.19,17.63-18.72,17.63-31.58,0-13.74-6.55-23.94-19.62-30.59-13.08-6.65-33.81-13.97-62.18-21.95-27.49-7.53-49.88-14.85-67.17-21.94-17.29-7.09-32.25-17.95-44.89-32.59-12.63-14.63-18.96-33.91-18.96-57.85,0-19.5,5.76-37.35,17.29-53.53,11.53-16.18,28.04-28.93,49.54-38.24,21.5-9.31,46.22-13.97,74.15-13.97,41.67,0,75.25,10.54,100.74,31.59,25.49,21.06,39.12,49.77,40.9,86.12h-75.81c-1.33-16.4-7.98-29.48-19.95-39.23-11.97-9.74-28.16-14.63-48.55-14.63s-35.24,3.77-45.88,11.3c-10.64,7.54-15.96,17.52-15.96,29.93,0,9.76,3.54,17.95,10.64,24.61,7.08,6.65,15.73,11.87,25.93,15.62,10.2,3.77,25.27,8.54,45.22,14.3,26.61,7.1,48.43,14.3,65.5,21.61,17.06,7.32,31.8,18.07,44.22,32.26,12.41,14.19,18.84,33.03,19.28,56.52,0,20.85-5.77,39.47-17.29,55.86-11.53,16.41-27.82,29.26-48.87,38.57-21.06,9.31-45.78,13.96-74.15,13.96s-54.64-5.22-77.47-15.63h0Z"/>
          <path class="cls-1" d="M1245.71,223.14c-.45-27.93-10.42-50.31-29.93-67.16-19.51-16.85-43.67-25.28-72.49-25.28-26.16,0-48.54,8.32-67.16,24.94-18.62,16.62-29.71,39.13-33.25,67.5h202.83ZM1322.19,284.32h-279.97c2.21,29.26,13.07,52.76,32.59,70.49,19.5,17.74,43.44,26.6,71.82,26.6,40.78,0,69.6-17.06,86.45-51.2h81.79c-11.08,33.69-31.15,61.3-60.18,82.79-29.04,21.51-65.07,32.25-108.07,32.25-35.02,0-66.39-7.86-94.09-23.61-27.71-15.73-49.44-37.9-65.17-66.5-15.74-28.6-23.61-61.74-23.61-99.42s7.65-70.82,22.94-99.42c15.29-28.6,36.79-50.65,64.51-66.17,27.7-15.51,59.51-23.28,95.42-23.28s65.39,7.54,92.44,22.62c27.03,15.07,48.1,36.24,63.17,63.51,15.07,27.26,22.61,58.64,22.61,94.09,0,13.75-.89,26.16-2.66,37.24h0Z"/>
          <path class="cls-1" d="M2060.95,189.88c-10.42-18.62-24.05-32.8-40.9-42.56-16.85-9.74-35.02-14.63-54.53-14.63s-37.69,4.77-54.53,14.29c-16.85,9.54-30.49,23.5-40.9,41.9-10.42,18.4-15.63,40.23-15.63,65.5s5.21,47.44,15.63,66.5c10.41,19.07,24.16,33.58,41.23,43.56,17.06,9.98,35.13,14.97,54.2,14.97s37.68-4.88,54.53-14.63c16.84-9.75,30.48-24.05,40.9-42.89,10.42-18.84,15.63-40.9,15.63-66.17s-5.21-47.22-15.63-65.84h0ZM1799.61,156.64c15.29-28.37,36.13-50.43,62.51-66.17,26.37-15.73,55.53-23.61,87.45-23.61,28.82,0,53.97,5.65,75.48,16.96,21.49,11.31,38.67,25.38,51.53,42.23v-53.2h76.48v366.42h-76.48v-54.53c-12.86,17.29-30.37,31.7-52.54,43.22-22.17,11.53-47.44,17.29-75.81,17.29-31.48,0-60.3-8.08-86.45-24.27-26.16-16.18-46.88-38.79-62.18-67.83-15.29-29.03-22.94-61.95-22.94-98.75s7.65-69.38,22.94-97.76h0Z"/>
          <path class="cls-1" d="M1460.17,189.88c10.41-18.61,24.16-32.8,41.23-42.55,17.06-9.75,35.13-14.63,54.19-14.63s37.8,4.77,54.87,14.29c17.06,9.55,30.81,23.5,41.22,41.9,10.42,18.41,15.63,40.24,15.63,65.5s-5.21,47.44-15.63,66.5c-10.42,19.07-24.17,33.58-41.22,43.56-17.07,9.98-35.36,14.97-54.87,14.97s-37.13-4.88-54.19-14.63c-17.07-9.75-30.82-24.05-41.23-42.89-10.42-18.84-15.63-40.9-15.63-66.17s5.21-47.22,15.63-65.84h0ZM1444.54,575.56v-189.49c13.74,16.86,31.48,30.92,53.2,42.23,21.72,11.3,46.55,16.96,74.48,16.96,31.92,0,61.06-8.08,87.45-24.27,26.37-16.18,47.1-38.79,62.18-67.83,15.07-29.03,22.61-61.95,22.61-98.75s-7.54-69.38-22.61-97.76c-15.08-28.36-35.81-50.43-62.18-66.17-26.38-15.73-55.53-23.61-87.45-23.61-27.93,0-52.98,5.77-75.15,17.29-22.18,11.53-39.68,25.72-52.54,42.56v-53.87h-75.81v502.71h75.81Z"/>
          <path class="cls-1" d="M2284.62,133.12c-3.37-1.47-6.02-3.57-7.94-6.28-1.93-2.7-2.89-5.86-2.89-9.47h11.01c.24,2.71,1.3,4.93,3.2,6.68,1.9,1.75,4.56,2.62,7.98,2.62s6.31-.86,8.3-2.57c1.99-1.71,2.97-3.93,2.97-6.63,0-2.1-.61-3.82-1.85-5.14-1.24-1.32-2.77-2.34-4.6-3.07-1.83-.72-4.38-1.5-7.62-2.34-4.09-1.08-7.42-2.18-9.97-3.3-2.56-1.12-4.74-2.84-6.54-5.19-1.8-2.35-2.7-5.48-2.7-9.38,0-3.61.9-6.77,2.7-9.48,1.8-2.7,4.33-4.78,7.58-6.23,3.25-1.44,7.01-2.16,11.27-2.16,6.07,0,11.05,1.52,14.93,4.56,3.88,3.04,6.03,7.21,6.45,12.5h-11.36c-.18-2.29-1.27-4.24-3.25-5.86-1.99-1.63-4.6-2.44-7.85-2.44-2.95,0-5.36.75-7.22,2.26-1.87,1.51-2.8,3.67-2.8,6.49,0,1.93.59,3.51,1.76,4.74,1.17,1.24,2.67,2.21,4.47,2.93,1.81.72,4.27,1.51,7.4,2.35,4.15,1.14,7.54,2.29,10.15,3.43s4.84,2.9,6.67,5.27c1.83,2.38,2.75,5.55,2.75,9.52,0,3.19-.86,6.19-2.57,9.02-1.71,2.82-4.21,5.1-7.49,6.81-3.28,1.71-7.15,2.58-11.59,2.58-4.21,0-8-.74-11.37-2.21h0Z"/>
          <path class="cls-1" d="M2328.46,96.31c2.07-3.88,4.95-6.87,8.61-8.98,3.67-2.1,7.88-3.16,12.63-3.16,6.01,0,10.99,1.43,14.93,4.29,3.94,2.86,6.6,6.93,7.98,12.23h-11.1c-.9-2.47-2.34-4.39-4.33-5.78-1.99-1.38-4.48-2.07-7.49-2.07-4.22,0-7.57,1.49-10.06,4.46-2.5,2.98-3.74,7.15-3.74,12.5s1.25,9.54,3.74,12.54c2.5,3.01,5.85,4.51,10.06,4.51,5.95,0,9.89-2.62,11.82-7.85h11.1c-1.44,5.05-4.15,9.07-8.12,12.04-3.97,2.97-8.9,4.47-14.8,4.47-4.75,0-8.97-1.06-12.63-3.2-3.67-2.14-6.54-5.15-8.61-9.02-2.07-3.88-3.11-8.37-3.11-13.49s1.04-9.61,3.11-13.49h0Z"/>
          <path class="cls-1" d="M2411.06,124.68c2.31-1.26,4.2-3.16,5.64-5.68,1.44-2.53,2.16-5.6,2.16-9.21s-.69-6.65-2.07-9.16c-1.39-2.5-3.22-4.37-5.5-5.63-2.29-1.26-4.75-1.9-7.4-1.9s-5.1.64-7.35,1.9c-2.26,1.26-4.05,3.14-5.37,5.63-1.32,2.5-1.99,5.55-1.99,9.16,0,5.36,1.37,9.49,4.11,12.41,2.74,2.92,6.18,4.37,10.33,4.37,2.65,0,5.12-.63,7.44-1.89h0ZM2390.9,132.3c-3.79-2.14-6.77-5.14-8.93-9.02-2.17-3.88-3.25-8.37-3.25-13.49s1.12-9.53,3.34-13.44c2.22-3.91,5.26-6.91,9.11-9.02,3.85-2.1,8.15-3.16,12.9-3.16s9.06,1.05,12.91,3.16c3.84,2.1,6.89,5.11,9.11,9.02,2.22,3.91,3.33,8.39,3.33,13.44s-1.14,9.54-3.43,13.45c-2.28,3.91-5.39,6.93-9.33,9.07-3.94,2.14-8.29,3.2-13.04,3.2s-8.94-1.06-12.72-3.2h0Z"/>
          <path class="cls-1" d="M2449.9,93.37v27.51c0,1.87.43,3.21,1.31,4.02.87.81,2.36,1.22,4.46,1.22h6.31v8.57h-8.12c-4.63,0-8.18-1.08-10.65-3.25-2.46-2.17-3.7-5.68-3.7-10.56v-27.51h-5.86v-8.39h5.86v-12.36h10.38v12.36h12.09v8.39h-12.09Z"/>
          <path class="cls-1" d="M2483.9,93.37v27.51c0,1.87.43,3.21,1.31,4.02.87.81,2.36,1.22,4.46,1.22h6.31v8.57h-8.12c-4.63,0-8.18-1.08-10.65-3.25-2.46-2.17-3.69-5.68-3.69-10.56v-27.51h-5.87v-8.39h5.87v-12.36h10.37v12.36h12.09v8.39h-12.09Z"/>
          <path class="cls-1" d="M2514.01,134.7h-10.28v-49.71h10.28v49.71ZM2504.27,76.5c-1.26-1.26-1.9-2.82-1.9-4.69s.64-3.43,1.9-4.69c1.27-1.26,2.83-1.89,4.69-1.89s3.33.63,4.6,1.89c1.26,1.27,1.89,2.83,1.89,4.69s-.63,3.43-1.89,4.69c-1.27,1.26-2.8,1.9-4.6,1.9s-3.43-.64-4.69-1.9h0Z"/>
          <path class="cls-1" d="M2533.87,133.39c-3.1-1.42-5.55-3.34-7.35-5.78-1.8-2.43-2.77-5.15-2.89-8.16h10.64c.18,2.1,1.19,3.86,3.02,5.27,1.83,1.42,4.13,2.12,6.9,2.12s5.13-.55,6.72-1.66c1.59-1.11,2.39-2.54,2.39-4.29,0-1.87-.89-3.25-2.66-4.15-1.78-.9-4.59-1.89-8.44-2.97-3.73-1.02-6.76-2.02-9.11-2.97-2.34-.96-4.37-2.44-6.09-4.42-1.71-1.99-2.57-4.61-2.57-7.85,0-2.65.78-5.07,2.34-7.26,1.56-2.2,3.81-3.93,6.72-5.19,2.92-1.26,6.27-1.89,10.06-1.89,5.65,0,10.21,1.43,13.67,4.29,3.46,2.85,5.31,6.75,5.55,11.68h-10.28c-.18-2.22-1.08-4-2.71-5.32-1.63-1.32-3.82-1.99-6.59-1.99s-4.78.51-6.23,1.54c-1.44,1.02-2.17,2.38-2.17,4.06,0,1.32.49,2.43,1.44,3.33.96.91,2.14,1.61,3.52,2.12,1.38.51,3.43,1.16,6.13,1.94,3.61.96,6.57,1.94,8.89,2.93,2.31,1,4.32,2.45,6,4.37,1.68,1.93,2.55,4.49,2.62,7.68,0,2.82-.78,5.35-2.34,7.57-1.57,2.22-3.78,3.97-6.64,5.23-2.85,1.27-6.21,1.9-10.06,1.9s-7.41-.71-10.51-2.12h0Z"/>
          <path class="cls-1" d="M2609.34,86.61c2.97,1.63,5.32,4.03,7.04,7.22,1.71,3.19,2.57,7.04,2.57,11.55v29.32h-10.2v-27.79c0-4.45-1.12-7.86-3.34-10.24-2.22-2.38-5.26-3.56-9.11-3.56s-6.9,1.18-9.16,3.56c-2.26,2.38-3.38,5.79-3.38,10.24v27.79h-10.28v-66.76h10.28v22.82c1.75-2.1,3.96-3.72,6.63-4.87,2.68-1.14,5.61-1.71,8.8-1.71,3.79,0,7.18.81,10.15,2.43h0Z"/>
        </g>
        <polygon class="cls-1" points="2665.77 80.29 2665.77 98.69 2687.42 98.69 2687.42 107.09 2665.77 107.09 2665.77 126.3 2690.13 126.3 2690.13 134.69 2655.49 134.69 2655.49 71.9 2690.13 71.9 2690.13 80.29 2665.77 80.29"/>
        <path class="cls-1" d="M2736.22,86.61c3.1,1.63,5.52,4.03,7.27,7.22,1.74,3.19,2.62,7.04,2.62,11.55v29.32h-10.2v-27.79c0-4.45-1.12-7.86-3.34-10.24-2.22-2.38-5.26-3.56-9.11-3.56s-6.9,1.18-9.16,3.56c-2.26,2.38-3.38,5.79-3.38,10.24v27.79h-10.28v-49.71h10.28v5.68c1.68-2.04,3.84-3.64,6.45-4.78,2.62-1.14,5.39-1.71,8.34-1.71,3.91,0,7.41.81,10.51,2.43"/>
        <polygon class="cls-1" points="2775.49 125.49 2789.56 84.98 2800.48 84.98 2781.53 134.69 2769.27 134.69 2750.41 84.98 2761.42 84.98 2775.49 125.49"/>
        <g>
          <path class="cls-1" d="M2817.67,134.7h-10.28v-49.71h10.28v49.71ZM2807.92,76.5c-1.26-1.26-1.9-2.82-1.9-4.69s.64-3.43,1.9-4.69c1.27-1.26,2.83-1.89,4.69-1.89s3.33.63,4.6,1.89c1.26,1.27,1.89,2.83,1.89,4.69s-.63,3.43-1.89,4.69c-1.27,1.26-2.8,1.9-4.6,1.9s-3.43-.64-4.69-1.9"/>
          <path class="cls-1" d="M2846.46,86.29c2.5-1.41,5.46-2.12,8.89-2.12v10.64h-2.62c-4.03,0-7.08,1.02-9.16,3.06-2.08,2.05-3.11,5.6-3.11,10.65v26.16h-10.28v-49.71h10.28v7.22c1.5-2.52,3.5-4.49,6-5.9"/>
          <path class="cls-1" d="M2892,124.68c2.31-1.26,4.2-3.16,5.64-5.68,1.44-2.53,2.16-5.6,2.16-9.21s-.69-6.65-2.07-9.16c-1.39-2.5-3.22-4.37-5.5-5.63-2.29-1.26-4.75-1.9-7.4-1.9s-5.1.64-7.35,1.9c-2.26,1.26-4.05,3.14-5.37,5.63-1.32,2.5-1.99,5.55-1.99,9.16,0,5.36,1.37,9.49,4.11,12.41,2.74,2.92,6.18,4.37,10.33,4.37,2.65,0,5.12-.63,7.44-1.89M2871.83,132.3c-3.79-2.14-6.77-5.14-8.93-9.02-2.17-3.88-3.25-8.37-3.25-13.49s1.12-9.53,3.34-13.44c2.22-3.91,5.26-6.91,9.11-9.02,3.85-2.1,8.15-3.16,12.9-3.16s9.06,1.05,12.91,3.16c3.84,2.1,6.88,5.11,9.11,9.02,2.22,3.91,3.33,8.39,3.33,13.44s-1.14,9.54-3.43,13.45c-2.28,3.91-5.39,6.93-9.33,9.07-3.94,2.14-8.29,3.2-13.04,3.2s-8.94-1.06-12.72-3.2"/>
          <path class="cls-1" d="M2955.37,86.61c3.1,1.63,5.52,4.03,7.27,7.22,1.74,3.19,2.62,7.04,2.62,11.55v29.32h-10.2v-27.79c0-4.45-1.12-7.86-3.34-10.24-2.22-2.38-5.26-3.56-9.11-3.56s-6.9,1.18-9.16,3.56c-2.26,2.38-3.38,5.79-3.38,10.24v27.79h-10.28v-49.71h10.28v5.68c1.68-2.04,3.83-3.64,6.45-4.78,2.62-1.14,5.4-1.71,8.34-1.71,3.91,0,7.41.81,10.51,2.43"/>
          <path class="cls-1" d="M3047.98,86.61c3.1,1.63,5.53,4.03,7.31,7.22,1.77,3.19,2.66,7.04,2.66,11.55v29.32h-10.2v-27.79c0-4.45-1.12-7.86-3.34-10.24-2.22-2.38-5.26-3.56-9.11-3.56s-6.91,1.18-9.16,3.56c-2.26,2.38-3.38,5.79-3.38,10.24v27.79h-10.19v-27.79c0-4.45-1.12-7.86-3.34-10.24-2.22-2.38-5.26-3.56-9.11-3.56s-6.9,1.18-9.16,3.56c-2.26,2.38-3.38,5.79-3.38,10.24v27.79h-10.28v-49.71h10.28v5.68c1.68-2.04,3.82-3.64,6.4-4.78,2.58-1.14,5.36-1.71,8.3-1.71,3.97,0,7.52.84,10.65,2.52,3.13,1.68,5.53,4.12,7.22,7.31,1.51-3.01,3.85-5.4,7.04-7.17,3.18-1.78,6.62-2.66,10.28-2.66,3.91,0,7.41.81,10.51,2.43"/>
          <path class="cls-1" d="M3105.07,105.37c-.06-3.79-1.42-6.82-4.06-9.11-2.65-2.28-5.92-3.43-9.83-3.43-3.55,0-6.59,1.13-9.11,3.38-2.53,2.26-4.03,5.32-4.51,9.16h27.52ZM3115.44,113.67h-37.98c.3,3.97,1.77,7.16,4.42,9.57,2.64,2.4,5.89,3.6,9.74,3.6,5.53,0,9.44-2.31,11.73-6.94h11.1c-1.51,4.57-4.23,8.32-8.17,11.23-3.94,2.92-8.83,4.38-14.66,4.38-4.75,0-9.01-1.06-12.77-3.2-3.76-2.14-6.71-5.14-8.84-9.02-2.14-3.88-3.2-8.37-3.2-13.49s1.03-9.6,3.11-13.49c2.08-3.88,5-6.87,8.75-8.98,3.76-2.1,8.08-3.15,12.95-3.15s8.87,1.02,12.54,3.06c3.67,2.05,6.52,4.92,8.56,8.62,2.05,3.7,3.07,7.95,3.07,12.76,0,1.87-.11,3.55-.36,5.05"/>
          <path class="cls-1" d="M3160.82,86.61c3.09,1.63,5.51,4.03,7.26,7.22,1.75,3.19,2.62,7.04,2.62,11.55v29.32h-10.2v-27.79c0-4.45-1.12-7.86-3.34-10.24-2.22-2.38-5.26-3.56-9.11-3.56s-6.9,1.18-9.16,3.56c-2.26,2.38-3.38,5.79-3.38,10.24v27.79h-10.28v-49.71h10.28v5.68c1.68-2.04,3.84-3.64,6.45-4.78,2.62-1.14,5.39-1.71,8.34-1.71,3.91,0,7.41.81,10.51,2.43"/>
          <path class="cls-1" d="M3193.94,93.37v27.51c0,1.87.43,3.21,1.31,4.02.87.81,2.36,1.22,4.46,1.22h6.32v8.57h-8.12c-4.63,0-8.18-1.08-10.64-3.25-2.47-2.17-3.7-5.68-3.7-10.56v-27.51h-5.87v-8.39h5.87v-12.36h10.37v12.36h12.09v8.39h-12.09Z"/>
          <path class="cls-1" d="M2304.87,192.64c1.92-1.77,2.89-4.29,2.89-7.53,0-6.86-3.88-10.28-11.64-10.28h-11.37v20.48h11.37c3.91,0,6.82-.89,8.75-2.67M2316.06,194.13c-1.51,2.82-3.91,5.12-7.22,6.9-3.31,1.78-7.55,2.66-12.72,2.66h-11.37v25.45h-10.28v-62.71h21.65c4.81,0,8.89.83,12.22,2.48,3.34,1.65,5.84,3.89,7.49,6.72,1.65,2.82,2.48,5.98,2.48,9.47,0,3.19-.76,6.19-2.26,9.02"/>
          <path class="cls-1" d="M2342.5,180.73c2.5-1.41,5.46-2.12,8.89-2.12v10.64h-2.62c-4.03,0-7.08,1.03-9.16,3.07-2.08,2.05-3.11,5.6-3.11,10.64v26.16h-10.28v-49.71h10.28v7.22c1.5-2.52,3.5-4.49,6-5.9"/>
          <path class="cls-1" d="M2388.04,219.12c2.31-1.26,4.2-3.16,5.64-5.68,1.44-2.52,2.16-5.6,2.16-9.2s-.69-6.66-2.07-9.16-3.22-4.37-5.5-5.64c-2.29-1.26-4.75-1.9-7.4-1.9s-5.1.64-7.35,1.9c-2.26,1.27-4.05,3.14-5.37,5.64-1.32,2.5-1.99,5.55-1.99,9.16,0,5.36,1.37,9.48,4.11,12.4,2.74,2.92,6.18,4.38,10.33,4.38,2.65,0,5.12-.63,7.44-1.9M2367.88,226.74c-3.79-2.14-6.77-5.14-8.93-9.02-2.17-3.88-3.25-8.37-3.25-13.49s1.12-9.53,3.34-13.45c2.22-3.9,5.26-6.91,9.11-9.02,3.85-2.1,8.15-3.16,12.9-3.16s9.06,1.05,12.91,3.16c3.84,2.1,6.88,5.12,9.11,9.02,2.22,3.91,3.33,8.39,3.33,13.45s-1.14,9.53-3.43,13.44c-2.28,3.91-5.39,6.93-9.33,9.07-3.94,2.14-8.29,3.2-13.04,3.2s-8.94-1.06-12.72-3.2"/>
          <path class="cls-1" d="M2426.88,187.81v27.51c0,1.87.43,3.21,1.31,4.01.87.81,2.36,1.22,4.46,1.22h6.31v8.57h-8.12c-4.63,0-8.18-1.08-10.65-3.25-2.46-2.17-3.69-5.68-3.69-10.56v-27.51h-5.87v-8.39h5.87v-12.36h10.37v12.36h12.09v8.39h-12.09Z"/>
          <path class="cls-1" d="M2481.35,199.81c-.06-3.79-1.41-6.82-4.06-9.11-2.65-2.28-5.92-3.43-9.83-3.43-3.55,0-6.59,1.13-9.11,3.38-2.53,2.26-4.03,5.31-4.51,9.16h27.51ZM2491.73,208.11h-37.98c.3,3.97,1.77,7.16,4.42,9.57,2.65,2.41,5.89,3.6,9.74,3.6,5.53,0,9.45-2.31,11.73-6.94h11.1c-1.5,4.57-4.22,8.32-8.16,11.24-3.94,2.91-8.83,4.37-14.66,4.37-4.75,0-9-1.06-12.77-3.2-3.76-2.14-6.7-5.14-8.84-9.02-2.13-3.88-3.2-8.37-3.2-13.49s1.04-9.61,3.11-13.49c2.07-3.88,4.99-6.87,8.75-8.97,3.76-2.1,8.07-3.16,12.94-3.16s8.87,1.02,12.54,3.07c3.67,2.04,6.53,4.92,8.58,8.61,2.04,3.7,3.06,7.95,3.06,12.76,0,1.87-.12,3.55-.36,5.05"/>
          <path class="cls-1" d="M2501.63,190.75c2.07-3.88,4.95-6.87,8.61-8.98,3.67-2.1,7.88-3.15,12.63-3.15,6.01,0,10.99,1.43,14.93,4.28,3.94,2.86,6.6,6.93,7.98,12.23h-11.1c-.9-2.47-2.34-4.39-4.33-5.78-1.99-1.38-4.48-2.07-7.49-2.07-4.22,0-7.57,1.49-10.06,4.46-2.5,2.98-3.74,7.15-3.74,12.5s1.25,9.54,3.74,12.55c2.5,3.01,5.85,4.51,10.06,4.51,5.95,0,9.89-2.62,11.82-7.85h11.1c-1.44,5.05-4.15,9.07-8.12,12.04-3.97,2.98-8.9,4.47-14.8,4.47-4.76,0-8.97-1.06-12.63-3.2-3.67-2.14-6.54-5.14-8.61-9.02-2.07-3.88-3.11-8.37-3.11-13.49s1.04-9.6,3.11-13.49"/>
          <path class="cls-1" d="M2566.99,187.81v27.51c0,1.87.43,3.21,1.31,4.01.87.81,2.36,1.22,4.46,1.22h6.31v8.57h-8.12c-4.63,0-8.18-1.08-10.65-3.25-2.46-2.17-3.7-5.68-3.7-10.56v-27.51h-5.86v-8.39h5.86v-12.36h10.38v12.36h12.09v8.39h-12.09Z"/>
          <path class="cls-1" d="M2597.1,229.14h-10.28v-49.71h10.28v49.71ZM2587.36,170.94c-1.26-1.26-1.9-2.82-1.9-4.69s.64-3.42,1.9-4.69c1.27-1.26,2.83-1.9,4.69-1.9s3.33.64,4.6,1.9c1.26,1.27,1.89,2.83,1.89,4.69s-.63,3.43-1.89,4.69c-1.27,1.26-2.8,1.9-4.6,1.9s-3.43-.64-4.69-1.9"/>
          <path class="cls-1" d="M2638.75,219.12c2.31-1.26,4.2-3.16,5.64-5.68,1.44-2.52,2.16-5.6,2.16-9.2s-.69-6.66-2.07-9.16c-1.39-2.5-3.22-4.37-5.5-5.64-2.29-1.26-4.75-1.9-7.4-1.9s-5.1.64-7.35,1.9c-2.26,1.27-4.05,3.14-5.37,5.64-1.32,2.5-1.99,5.55-1.99,9.16,0,5.36,1.37,9.48,4.11,12.4,2.74,2.92,6.18,4.38,10.33,4.38,2.65,0,5.12-.63,7.44-1.9M2618.58,226.74c-3.79-2.14-6.77-5.14-8.93-9.02-2.17-3.88-3.25-8.37-3.25-13.49s1.12-9.53,3.34-13.45c2.22-3.9,5.26-6.91,9.11-9.02,3.85-2.1,8.15-3.16,12.9-3.16s9.06,1.05,12.91,3.16c3.84,2.1,6.89,5.12,9.11,9.02,2.22,3.91,3.33,8.39,3.33,13.45s-1.14,9.53-3.43,13.44c-2.28,3.91-5.39,6.93-9.33,9.07-3.94,2.14-8.29,3.2-13.04,3.2s-8.94-1.06-12.72-3.2"/>
          <path class="cls-1" d="M2702.11,181.05c3.1,1.63,5.52,4.03,7.27,7.22,1.74,3.19,2.62,7.04,2.62,11.55v29.32h-10.2v-27.78c0-4.46-1.12-7.86-3.34-10.24-2.22-2.38-5.26-3.57-9.11-3.57s-6.9,1.18-9.16,3.57c-2.26,2.38-3.38,5.78-3.38,10.24v27.78h-10.28v-49.71h10.28v5.68c1.68-2.04,3.84-3.64,6.45-4.78,2.62-1.13,5.39-1.71,8.34-1.71,3.91,0,7.41.81,10.51,2.43"/>
        </g>
        <path class="cls-1" d="M2783.45,207.93l-10.2-29.14-10.28,29.14h20.48ZM2786.33,216.32h-26.25l-4.51,12.81h-10.74l22.47-62.79h11.91l22.47,62.79h-10.83l-4.51-12.81Z"/>
        <g>
          <path class="cls-1" d="M2843.71,195.3c-1.41-2.53-3.26-4.46-5.55-5.78-2.29-1.32-4.75-1.98-7.4-1.98s-5.12.65-7.4,1.94c-2.29,1.29-4.14,3.19-5.55,5.68-1.41,2.5-2.12,5.46-2.12,8.89s.71,6.44,2.12,9.02c1.41,2.58,3.28,4.56,5.6,5.91,2.31,1.35,4.76,2.03,7.35,2.03s5.11-.66,7.4-1.99c2.28-1.32,4.13-3.26,5.55-5.82,1.41-2.55,2.12-5.55,2.12-8.97s-.71-6.41-2.12-8.93M2838.84,180.91c2.97,1.53,5.31,3.44,6.99,5.73v-7.22h10.37v50.52c0,4.57-.96,8.65-2.89,12.22-1.93,3.58-4.71,6.4-8.34,8.44-3.64,2.05-7.98,3.07-13.04,3.07-6.74,0-12.33-1.58-16.78-4.74-4.45-3.16-6.98-7.44-7.58-12.86h10.2c.78,2.58,2.45,4.68,5.01,6.27,2.55,1.59,5.61,2.39,9.16,2.39,4.15,0,7.5-1.27,10.06-3.79,2.56-2.53,3.84-6.19,3.84-11.01v-8.3c-1.75,2.34-4.11,4.32-7.08,5.91-2.98,1.59-6.36,2.39-10.15,2.39-4.33,0-8.29-1.1-11.87-3.29-3.57-2.19-6.4-5.26-8.48-9.2-2.08-3.94-3.11-8.41-3.11-13.4s1.03-9.41,3.11-13.26c2.07-3.85,4.9-6.84,8.48-8.97,3.58-2.14,7.54-3.21,11.87-3.21,3.85,0,7.27.77,10.24,2.3"/>
          <path class="cls-1" d="M2903.88,199.81c-.06-3.79-1.41-6.82-4.06-9.11-2.65-2.28-5.92-3.43-9.83-3.43-3.55,0-6.59,1.13-9.11,3.38-2.53,2.26-4.03,5.31-4.51,9.16h27.51ZM2914.26,208.11h-37.98c.3,3.97,1.77,7.16,4.42,9.57,2.65,2.41,5.89,3.6,9.74,3.6,5.53,0,9.44-2.31,11.73-6.94h11.1c-1.5,4.57-4.22,8.32-8.16,11.24-3.94,2.91-8.83,4.37-14.66,4.37-4.75,0-9-1.06-12.77-3.2-3.76-2.14-6.7-5.14-8.84-9.02s-3.2-8.37-3.2-13.49,1.04-9.61,3.11-13.49c2.07-3.88,4.99-6.87,8.75-8.97,3.76-2.1,8.07-3.16,12.94-3.16s8.87,1.02,12.54,3.07c3.67,2.04,6.53,4.92,8.57,8.61,2.05,3.7,3.07,7.95,3.07,12.76,0,1.87-.12,3.55-.36,5.05"/>
          <path class="cls-1" d="M2959.64,181.05c3.1,1.63,5.52,4.03,7.26,7.22,1.75,3.19,2.62,7.04,2.62,11.55v29.32h-10.2v-27.78c0-4.46-1.12-7.86-3.34-10.24-2.22-2.38-5.26-3.57-9.11-3.57s-6.9,1.18-9.16,3.57c-2.26,2.38-3.38,5.78-3.38,10.24v27.78h-10.28v-49.71h10.28v5.68c1.68-2.04,3.83-3.64,6.45-4.78,2.62-1.13,5.39-1.71,8.34-1.71,3.91,0,7.41.81,10.51,2.43"/>
          <path class="cls-1" d="M2981.5,190.75c2.07-3.88,4.95-6.87,8.61-8.98,3.67-2.1,7.88-3.15,12.63-3.15,6.01,0,10.99,1.43,14.93,4.28,3.94,2.86,6.6,6.93,7.98,12.23h-11.1c-.9-2.47-2.34-4.39-4.33-5.78-1.99-1.38-4.48-2.07-7.49-2.07-4.22,0-7.57,1.49-10.06,4.46-2.5,2.98-3.74,7.15-3.74,12.5s1.25,9.54,3.74,12.55c2.5,3.01,5.85,4.51,10.06,4.51,5.95,0,9.89-2.62,11.82-7.85h11.1c-1.44,5.05-4.15,9.07-8.12,12.04-3.97,2.98-8.9,4.47-14.8,4.47-4.76,0-8.97-1.06-12.63-3.2s-6.54-5.14-8.61-9.02c-2.07-3.88-3.11-8.37-3.11-13.49s1.04-9.6,3.11-13.49"/>
        </g>
        <polygon class="cls-1" points="3078.87 179.42 3048.38 252.5 3037.73 252.5 3047.84 228.32 3028.26 179.42 3039.71 179.42 3053.7 217.31 3068.22 179.42 3078.87 179.42"/>
        <g>
          <path class="cls-1" d="M2307.21,337.4c2.56-2.16,3.84-5.14,3.84-8.93s-1.34-6.81-4.01-9.07c-2.68-2.26-6.27-3.38-10.78-3.38h-14.8v24.63h15.07c4.57,0,8.13-1.08,10.69-3.25M2281.46,310.79h14.7c4.27,0,7.57-1.01,9.88-3.02,2.31-2.02,3.47-4.8,3.47-8.34s-1.16-6.23-3.47-8.21c-2.31-1.99-5.7-2.97-10.15-2.97h-14.43v22.55ZM2313.67,318.82c2.46,2.95,3.7,6.38,3.7,10.28,0,3.19-.8,6.06-2.39,8.61-1.59,2.56-3.93,4.57-6.99,6.04-3.07,1.48-6.74,2.21-11.01,2.21h-21.83v-63.06h21.2c6.38,0,11.24,1.47,14.57,4.42,3.34,2.95,5.01,6.77,5.01,11.46,0,3.91-1.05,7.08-3.16,9.52-2.1,2.44-4.81,4.13-8.12,5.1,3.55.66,6.55,2.46,9.02,5.41"/>
          <path class="cls-1" d="M2371.31,296.72v49.26h-6.31v-8.66c-1.44,3.06-3.67,5.41-6.68,7.03-3.01,1.63-6.38,2.44-10.1,2.44-5.9,0-10.71-1.82-14.44-5.46-3.73-3.64-5.59-8.91-5.59-15.83v-28.78h6.22v28.05c0,5.36,1.34,9.45,4.01,12.28,2.68,2.82,6.33,4.24,10.96,4.24s8.54-1.51,11.37-4.51c2.82-3.01,4.24-7.43,4.24-13.26v-26.79h6.31Z"/>
          <path class="cls-1" d="M2391.4,345.97h-6.31v-49.26h6.31v49.26ZM2385,286.07c-.9-.9-1.36-2.02-1.36-3.34s.45-2.42,1.36-3.29c.9-.87,1.98-1.31,3.25-1.31s2.35.44,3.25,1.31,1.35,1.97,1.35,3.29-.45,2.44-1.35,3.34c-.9.9-1.99,1.35-3.25,1.35s-2.34-.45-3.25-1.35"/>
          <path class="cls-1" d="M2442.76,310.88c-1.63-3.01-3.84-5.32-6.63-6.94-2.8-1.63-5.89-2.44-9.25-2.44s-6.62.78-9.38,2.34c-2.77,1.57-4.95,3.84-6.54,6.81-1.59,2.98-2.39,6.52-2.39,10.61s.79,7.56,2.39,10.6c1.59,3.04,3.77,5.36,6.54,6.94,2.77,1.59,5.89,2.39,9.38,2.39s6.45-.81,9.25-2.44c2.79-1.63,5-3.94,6.63-6.94,1.63-3.01,2.43-6.5,2.43-10.47s-.81-7.46-2.43-10.47M2405.23,307.95c2.04-3.82,4.86-6.77,8.43-8.84,3.58-2.07,7.62-3.11,12.14-3.11s8.24,1.05,11.73,3.16c3.49,2.1,6.05,4.85,7.67,8.2v-28.14h6.31v66.76h-6.31v-11c-1.5,3.43-3.97,6.24-7.4,8.43-3.43,2.2-7.45,3.3-12.09,3.3s-8.56-1.05-12.14-3.16c-3.58-2.1-6.38-5.09-8.39-8.94-2.02-3.84-3.02-8.3-3.02-13.35s1.02-9.49,3.07-13.31"/>
          <path class="cls-1" d="M2498.68,298.16c2.98,1.56,5.32,3.96,7.04,7.17,1.71,3.22,2.57,7.15,2.57,11.78v28.87h-6.23v-28.15c0-5.35-1.34-9.44-4.01-12.27-2.68-2.82-6.33-4.24-10.96-4.24s-8.54,1.51-11.37,4.51c-2.82,3.01-4.24,7.43-4.24,13.26v26.88h-6.31v-66.76h6.31v25.9c1.56-2.95,3.87-5.24,6.91-6.86,3.04-1.63,6.45-2.44,10.24-2.44s7.08.78,10.06,2.34"/>
          <path class="cls-1" d="M2557.66,309.26c-1.54-2.59-3.63-4.54-6.28-5.86-2.65-1.33-5.53-1.99-8.66-1.99-4.69,0-8.69,1.5-12,4.51-3.31,3.01-5.14,7.25-5.5,12.72h34.64c.06-3.67-.67-6.8-2.21-9.38M2566.09,323.78h-40.87c.18,3.73,1.08,6.92,2.7,9.57,1.63,2.65,3.76,4.64,6.41,6,2.65,1.35,5.53,2.03,8.66,2.03,4.09,0,7.53-.99,10.33-2.98,2.8-1.98,4.65-4.66,5.55-8.03h6.67c-1.2,4.81-3.77,8.73-7.71,11.77-3.94,3.04-8.89,4.56-14.84,4.56-4.63,0-8.78-1.03-12.45-3.11-3.67-2.08-6.54-5.03-8.61-8.84-2.07-3.82-3.11-8.29-3.11-13.4s1.02-9.59,3.07-13.44c2.04-3.84,4.9-6.79,8.57-8.84,3.67-2.04,7.85-3.07,12.54-3.07s8.8,1.03,12.31,3.07c3.52,2.05,6.23,4.8,8.12,8.26,1.89,3.46,2.84,7.3,2.84,11.51,0,2.16-.06,3.82-.18,4.96"/>
          <path class="cls-1" d="M2615.26,310.88c-1.63-3.01-3.83-5.32-6.63-6.94-2.8-1.63-5.88-2.44-9.25-2.44s-6.62.78-9.38,2.34c-2.77,1.57-4.95,3.84-6.54,6.81-1.59,2.98-2.39,6.52-2.39,10.61s.79,7.56,2.39,10.6c1.59,3.04,3.77,5.36,6.54,6.94,2.77,1.59,5.9,2.39,9.38,2.39s6.45-.81,9.25-2.44c2.8-1.63,5-3.94,6.63-6.94,1.63-3.01,2.43-6.5,2.43-10.47s-.81-7.46-2.43-10.47M2577.69,307.95c2.02-3.82,4.81-6.77,8.39-8.84,3.58-2.07,7.62-3.11,12.14-3.11s8.73,1.08,12.14,3.25c3.4,2.17,5.85,4.93,7.35,8.31v-10.83h6.32v49.25h-6.32v-10.91c-1.56,3.37-4.04,6.15-7.44,8.34-3.4,2.2-7.44,3.3-12.13,3.3s-8.47-1.05-12.05-3.16c-3.57-2.1-6.37-5.09-8.39-8.94-2.02-3.84-3.02-8.3-3.02-13.35s1.01-9.49,3.02-13.31"/>
          <path class="cls-1" d="M2675.2,301.28c3.72,3.64,5.59,8.92,5.59,15.83v28.87h-6.22v-28.15c0-5.35-1.34-9.44-4.01-12.28-2.68-2.82-6.33-4.23-10.96-4.23s-8.54,1.51-11.37,4.51c-2.83,3.01-4.24,7.43-4.24,13.26v26.89h-6.31v-49.26h6.31v8.39c1.56-3.01,3.82-5.31,6.77-6.9,2.94-1.59,6.28-2.39,10.01-2.39,5.89,0,10.71,1.82,14.44,5.46"/>
          <path class="cls-1" d="M2731.65,301.28c3.72,3.64,5.59,8.92,5.59,15.83v28.87h-6.22v-28.15c0-5.35-1.34-9.44-4.01-12.28-2.68-2.82-6.33-4.23-10.96-4.23s-8.54,1.51-11.37,4.51c-2.83,3.01-4.24,7.43-4.24,13.26v26.89h-6.31v-49.26h6.31v8.39c1.56-3.01,3.82-5.31,6.77-6.9,2.94-1.59,6.28-2.39,10.01-2.39,5.89,0,10.71,1.82,14.44,5.46"/>
          <path class="cls-1" d="M2814.7,333.84c4.61-4.6,6.91-11.02,6.91-19.26s-2.3-14.78-6.91-19.45c-4.6-4.66-11.29-6.99-20.07-6.99h-12.36v52.6h12.36c8.78,0,15.47-2.3,20.07-6.9M2812.58,286.7c4.99,2.53,8.81,6.17,11.46,10.92,2.65,4.75,3.97,10.4,3.97,16.96s-1.32,12.1-3.97,16.82c-2.65,4.73-6.47,8.34-11.46,10.83-4.99,2.49-10.98,3.74-17.95,3.74h-18.68v-63.06h18.68c6.98,0,12.96,1.26,17.95,3.79"/>
        </g>
        <path class="cls-1" d="M2845.56,345.97h-6.31v-49.26h6.31v49.26ZM2850.7,288.06v4.87l-18.5-10.73v-5.69l18.5,11.55Z"/>
        <g>
          <path class="cls-1" d="M2889.47,338.99c2.77-1.47,5.01-3.7,6.72-6.68,1.71-2.97,2.57-6.63,2.57-10.96s-.84-7.98-2.53-10.96c-1.68-2.97-3.91-5.2-6.67-6.67-2.77-1.47-5.77-2.21-9.02-2.21s-6.26.74-9.02,2.21c-2.77,1.47-4.97,3.7-6.63,6.67-1.65,2.98-2.48,6.64-2.48,10.96s.83,7.98,2.48,10.96c1.66,2.98,3.85,5.21,6.59,6.68,2.73,1.47,5.73,2.21,8.98,2.21s6.25-.74,9.02-2.21M2867.95,343.59c-3.7-2.07-6.62-5.02-8.75-8.84-2.14-3.82-3.2-8.29-3.2-13.4s1.08-9.58,3.25-13.4c2.17-3.82,5.12-6.77,8.84-8.84,3.73-2.07,7.91-3.11,12.55-3.11s8.82,1.04,12.58,3.11c3.76,2.07,6.71,5.02,8.84,8.84,2.14,3.82,3.2,8.29,3.2,13.4s-1.08,9.5-3.25,13.35c-2.17,3.85-5.14,6.81-8.94,8.89-3.79,2.08-8,3.11-12.63,3.11s-8.8-1.03-12.5-3.11"/>
          <path class="cls-1" d="M2953.75,301.28c3.72,3.64,5.59,8.92,5.59,15.83v28.87h-6.23v-28.15c0-5.35-1.34-9.44-4.01-12.28-2.68-2.82-6.33-4.23-10.96-4.23s-8.54,1.51-11.37,4.51c-2.83,3.01-4.24,7.43-4.24,13.26v26.89h-6.31v-49.26h6.31v8.39c1.57-3.01,3.82-5.31,6.77-6.9,2.95-1.59,6.28-2.39,10.01-2.39,5.9,0,10.71,1.82,14.44,5.46"/>
        </g>
        <path class="cls-1" d="M2303.78,372.12v4.88l-18.5-10.74v-5.68l18.5,11.54ZM2307.84,422.82l-12.45-34.1-12.45,34.1h24.9ZM2309.73,428.06h-28.69l-5.5,14.97h-6.67l23-62.25h7.13l22.92,62.25h-6.68l-5.5-14.97Z"/>
        <g>
          <path class="cls-1" d="M2343.5,395.4c2.85-1.68,6.36-2.53,10.51-2.53v6.59h-1.71c-4.58,0-8.24,1.23-11.01,3.69-2.77,2.47-4.15,6.59-4.15,12.36v27.52h-6.32v-49.26h6.32v8.75c1.38-3.06,3.5-5.44,6.36-7.13"/>
          <path class="cls-1" d="M2398.72,407.94c-1.63-3.01-3.83-5.32-6.63-6.94-2.8-1.63-5.88-2.44-9.25-2.44s-6.62.78-9.38,2.34c-2.77,1.57-4.95,3.84-6.54,6.81-1.59,2.98-2.39,6.52-2.39,10.61s.79,7.56,2.39,10.6c1.59,3.04,3.77,5.36,6.54,6.94,2.77,1.59,5.9,2.39,9.38,2.39s6.45-.81,9.25-2.44c2.8-1.63,5-3.94,6.63-6.94,1.63-3.01,2.43-6.5,2.43-10.47s-.81-7.46-2.43-10.47M2361.15,405.01c2.02-3.82,4.81-6.77,8.39-8.84,3.58-2.07,7.62-3.11,12.14-3.11s8.73,1.08,12.14,3.25c3.4,2.17,5.85,4.93,7.35,8.31v-10.83h6.32v49.25h-6.32v-10.91c-1.56,3.37-4.04,6.15-7.44,8.34-3.4,2.2-7.44,3.3-12.13,3.3s-8.47-1.05-12.05-3.16c-3.57-2.1-6.37-5.09-8.39-8.94-2.02-3.84-3.02-8.3-3.02-13.35s1.01-9.49,3.02-13.31"/>
          <path class="cls-1" d="M2427.52,443.04h-6.31v-49.26h6.31v49.26ZM2421.11,383.13c-.9-.9-1.36-2.02-1.36-3.34s.45-2.42,1.36-3.29c.9-.87,1.98-1.31,3.25-1.31s2.34.44,3.25,1.31c.9.87,1.35,1.97,1.35,3.29s-.45,2.44-1.35,3.34c-.9.9-1.99,1.35-3.25,1.35s-2.35-.45-3.25-1.35"/>
          <path class="cls-1" d="M2478.66,398.34c3.72,3.64,5.59,8.92,5.59,15.83v28.87h-6.22v-28.15c0-5.35-1.34-9.44-4.01-12.27-2.68-2.82-6.33-4.24-10.96-4.24s-8.54,1.51-11.37,4.51c-2.83,3.01-4.24,7.43-4.24,13.26v26.89h-6.31v-49.26h6.31v8.39c1.56-3.01,3.82-5.31,6.77-6.9,2.94-1.59,6.28-2.39,10.01-2.39,5.89,0,10.71,1.82,14.44,5.46"/>
          <path class="cls-1" d="M2535.11,398.34c3.72,3.64,5.59,8.92,5.59,15.83v28.87h-6.22v-28.15c0-5.35-1.34-9.44-4.01-12.27-2.68-2.82-6.33-4.24-10.96-4.24s-8.54,1.51-11.37,4.51c-2.83,3.01-4.24,7.43-4.24,13.26v26.89h-6.31v-49.26h6.31v8.39c1.56-3.01,3.82-5.31,6.77-6.9,2.94-1.59,6.28-2.39,10.01-2.39,5.89,0,10.71,1.82,14.44,5.46"/>
          <path class="cls-1" d="M2590.07,406.32c-1.53-2.59-3.62-4.54-6.27-5.87-2.65-1.32-5.53-1.98-8.66-1.98-4.69,0-8.69,1.51-12,4.51-3.31,3.01-5.14,7.25-5.5,12.72h34.64c.06-3.67-.67-6.8-2.21-9.38M2598.51,420.84h-40.87c.18,3.73,1.08,6.91,2.7,9.57,1.63,2.64,3.76,4.64,6.4,5.99,2.65,1.35,5.54,2.04,8.66,2.04,4.09,0,7.53-1,10.33-2.98,2.8-1.98,4.64-4.66,5.55-8.03h6.67c-1.2,4.81-3.77,8.73-7.71,11.77-3.94,3.04-8.89,4.56-14.84,4.56-4.63,0-8.78-1.03-12.45-3.11-3.67-2.08-6.54-5.03-8.61-8.84-2.07-3.83-3.11-8.29-3.11-13.4s1.02-9.59,3.07-13.44c2.04-3.84,4.9-6.79,8.57-8.84,3.67-2.04,7.85-3.07,12.54-3.07s8.8,1.03,12.31,3.07c3.52,2.05,6.23,4.8,8.12,8.26,1.89,3.46,2.84,7.3,2.84,11.5,0,2.17-.06,3.83-.18,4.97"/>
          <path class="cls-1" d="M2647.68,407.94c-1.63-3.01-3.83-5.32-6.63-6.94-2.8-1.63-5.88-2.44-9.25-2.44s-6.62.78-9.38,2.34c-2.77,1.57-4.95,3.84-6.54,6.81-1.59,2.98-2.39,6.52-2.39,10.61s.79,7.56,2.39,10.6,3.77,5.36,6.54,6.94c2.77,1.59,5.9,2.39,9.38,2.39s6.45-.81,9.25-2.44c2.8-1.63,5-3.94,6.63-6.94,1.63-3.01,2.43-6.5,2.43-10.47s-.81-7.46-2.43-10.47M2610.1,405.01c2.02-3.82,4.81-6.77,8.39-8.84,3.58-2.07,7.62-3.11,12.14-3.11s8.73,1.08,12.14,3.25c3.4,2.17,5.85,4.93,7.35,8.31v-10.83h6.32v49.25h-6.32v-10.91c-1.56,3.37-4.04,6.15-7.44,8.34-3.4,2.2-7.44,3.3-12.13,3.3s-8.47-1.05-12.05-3.16c-3.57-2.1-6.37-5.09-8.39-8.94-2.02-3.84-3.02-8.3-3.02-13.35s1.01-9.49,3.02-13.31"/>
          <path class="cls-1" d="M2670.57,405.01c2.04-3.82,4.87-6.77,8.48-8.84,3.6-2.07,7.73-3.11,12.36-3.11,6.07,0,11.08,1.51,15.02,4.51,3.94,3.01,6.48,7.1,7.62,12.27h-6.77c-.84-3.55-2.66-6.33-5.46-8.35-2.8-2.01-6.27-3.02-10.42-3.02-3.31,0-6.28.76-8.93,2.26-2.65,1.51-4.74,3.74-6.27,6.72-1.54,2.98-2.3,6.64-2.3,10.96s.76,8,2.3,11.01c1.53,3.01,3.62,5.26,6.27,6.77,2.65,1.5,5.62,2.25,8.93,2.25,4.15,0,7.63-1.01,10.42-3.02,2.8-2.02,4.61-4.83,5.46-8.44h6.77c-1.15,5.05-3.7,9.11-7.67,12.18-3.97,3.07-8.97,4.6-14.98,4.6-4.63,0-8.75-1.03-12.36-3.11-3.61-2.07-6.44-5.02-8.48-8.84-2.05-3.82-3.07-8.28-3.07-13.4s1.02-9.58,3.07-13.4"/>
          <path class="cls-1" d="M2758.37,395.22c2.97,1.56,5.32,3.96,7.04,7.17,1.71,3.22,2.57,7.15,2.57,11.78v28.87h-6.23v-28.15c0-5.35-1.34-9.44-4.01-12.27-2.68-2.82-6.33-4.24-10.96-4.24s-8.54,1.51-11.37,4.51c-2.82,3.01-4.24,7.43-4.24,13.26v26.88h-6.31v-66.76h6.31v25.9c1.56-2.95,3.87-5.24,6.91-6.86,3.04-1.62,6.45-2.43,10.24-2.43s7.08.78,10.06,2.34"/>
          <path class="cls-1" d="M2819.1,407.94c-1.63-3.01-3.84-5.32-6.63-6.94-2.8-1.63-5.89-2.44-9.25-2.44s-6.62.78-9.38,2.34c-2.77,1.57-4.95,3.84-6.54,6.81-1.59,2.98-2.39,6.52-2.39,10.61s.79,7.56,2.39,10.6c1.59,3.04,3.77,5.36,6.54,6.94,2.77,1.59,5.89,2.39,9.38,2.39s6.45-.81,9.25-2.44c2.79-1.63,5-3.94,6.63-6.94,1.63-3.01,2.43-6.5,2.43-10.47s-.81-7.46-2.43-10.47M2781.57,405.01c2.04-3.82,4.86-6.77,8.43-8.84,3.58-2.07,7.62-3.11,12.14-3.11s8.24,1.05,11.73,3.16c3.49,2.1,6.05,4.85,7.67,8.21v-28.15h6.31v66.76h-6.31v-11c-1.5,3.43-3.97,6.24-7.4,8.43-3.43,2.2-7.45,3.3-12.09,3.3s-8.56-1.05-12.14-3.16c-3.58-2.1-6.38-5.09-8.39-8.94-2.02-3.84-3.02-8.3-3.02-13.35s1.02-9.49,3.07-13.31"/>
          <path class="cls-1" d="M2904.54,398.34c3.72,3.64,5.59,8.92,5.59,15.83v28.87h-6.22v-28.15c0-5.35-1.34-9.44-4.01-12.27-2.68-2.82-6.33-4.24-10.96-4.24s-8.54,1.51-11.37,4.51c-2.83,3.01-4.24,7.43-4.24,13.26v26.89h-6.31v-49.26h6.31v8.39c1.56-3.01,3.82-5.31,6.77-6.9,2.94-1.59,6.28-2.39,10.01-2.39,5.89,0,10.71,1.82,14.44,5.46"/>
          <path class="cls-1" d="M2961.26,407.94c-1.63-3.01-3.84-5.32-6.63-6.94-2.8-1.63-5.88-2.44-9.25-2.44s-6.62.78-9.38,2.34c-2.77,1.57-4.95,3.84-6.54,6.81-1.59,2.98-2.39,6.52-2.39,10.61s.79,7.56,2.39,10.6,3.77,5.36,6.54,6.94c2.77,1.59,5.9,2.39,9.38,2.39s6.45-.81,9.25-2.44c2.79-1.63,5-3.94,6.63-6.94,1.63-3.01,2.43-6.5,2.43-10.47s-.81-7.46-2.43-10.47M2923.68,405.01c2.02-3.82,4.81-6.77,8.39-8.84,3.58-2.07,7.62-3.11,12.14-3.11s8.73,1.08,12.13,3.25c3.4,2.17,5.85,4.93,7.35,8.31v-10.83h6.32v49.25h-6.32v-10.91c-1.56,3.37-4.05,6.15-7.44,8.34-3.4,2.2-7.44,3.3-12.13,3.3s-8.47-1.05-12.05-3.16c-3.58-2.1-6.37-5.09-8.39-8.94-2.02-3.84-3.02-8.3-3.02-13.35s1.01-9.49,3.02-13.31"/>
          <path class="cls-1" d="M3042.68,395.22c2.97,1.56,5.32,3.96,7.03,7.17,1.72,3.22,2.58,7.15,2.58,11.78v28.87h-6.23v-28.15c0-5.35-1.34-9.44-4.02-12.27-2.67-2.82-6.33-4.24-10.96-4.24s-8.54,1.51-11.37,4.51c-2.82,3.01-4.24,7.43-4.24,13.26v26.88h-6.31v-66.76h6.31v25.9c1.56-2.95,3.86-5.24,6.9-6.86,3.04-1.62,6.45-2.43,10.24-2.43s7.08.78,10.06,2.34"/>
        </g>
        <rect class="cls-1" x="3061.05" y="406.95" width="35.09" height="5.32"/>
        <path class="cls-1" d="M3139.76,422.82l-12.45-34.1-12.45,34.1h24.9ZM3141.66,428.06h-28.69l-5.5,14.97h-6.68l23.01-62.25h7.13l22.91,62.25h-6.67l-5.5-14.97Z"/>
        <rect class="cls-1" x="3162.74" y="376.27" width="6.31" height="66.76"/>
        <g>
          <path class="cls-1" d="M3223.11,407.72c-1.59-2.97-3.77-5.25-6.54-6.81-2.77-1.56-5.9-2.34-9.38-2.34s-6.45.81-9.25,2.44c-2.79,1.62-5,3.94-6.62,6.94-1.63,3.01-2.44,6.5-2.44,10.46s.81,7.46,2.44,10.47c1.62,3.01,3.83,5.32,6.62,6.95,2.8,1.63,5.89,2.43,9.25,2.43s6.62-.79,9.38-2.39c2.77-1.59,4.95-3.91,6.54-6.94,1.59-3.04,2.39-6.57,2.39-10.61s-.79-7.62-2.39-10.6M3196.4,396.3c3.4-2.17,7.42-3.25,12.04-3.25s8.55,1.04,12.09,3.12c3.55,2.07,6.33,5.02,8.34,8.84,2.02,3.82,3.02,8.25,3.02,13.3s-1.01,9.5-3.02,13.35-4.81,6.83-8.39,8.93c-3.58,2.11-7.59,3.16-12.05,3.16-4.69,0-8.73-1.07-12.13-3.21-3.4-2.13-5.88-4.92-7.44-8.34v10.83h-6.23v-66.76h6.23v28.42c1.63-3.42,4.13-6.22,7.53-8.39"/>
          <path class="cls-1" d="M3280.76,407.94c-1.63-3.01-3.84-5.32-6.63-6.94-2.8-1.63-5.89-2.44-9.25-2.44s-6.62.78-9.38,2.34c-2.77,1.57-4.95,3.84-6.53,6.81-1.6,2.98-2.39,6.52-2.39,10.61s.79,7.56,2.39,10.6c1.59,3.04,3.77,5.36,6.53,6.94,2.77,1.59,5.9,2.39,9.38,2.39s6.45-.81,9.25-2.44c2.79-1.63,5-3.94,6.63-6.94,1.63-3.01,2.44-6.5,2.44-10.47s-.81-7.46-2.44-10.47M3243.19,405.01c2.02-3.82,4.81-6.77,8.39-8.84,3.57-2.07,7.63-3.11,12.13-3.11s8.74,1.08,12.14,3.25c3.4,2.17,5.85,4.93,7.35,8.31v-10.83h6.31v49.25h-6.31v-10.91c-1.57,3.37-4.05,6.15-7.44,8.34-3.4,2.2-7.45,3.3-12.14,3.3s-8.47-1.05-12.04-3.16c-3.59-2.1-6.38-5.09-8.39-8.94-2.02-3.84-3.03-8.3-3.03-13.35s1.01-9.49,3.03-13.31"/>
          <path class="cls-1" d="M202.69,354.24c-16.81,0-33.06,5-47,14.46-9.45,6.42-20.47,9.81-31.86,9.81s-22.4-3.39-31.86-9.81c-13.94-9.46-30.19-14.46-47-14.46-10.43,0-20.64,1.93-30.21,5.65v37.26c9.57-3.71,19.78-5.65,30.21-5.65,16.81,0,33.06,5,47,14.46,9.46,6.41,20.47,9.81,31.86,9.81s22.41-3.39,31.86-9.81c13.94-9.46,30.2-14.46,47-14.46,10.51,0,20.81,1.96,30.46,5.73v-37.26c-9.65-3.77-19.94-5.73-30.46-5.73"/>
          <path class="cls-1" d="M202.69,432.15c-16.81,0-33.06,5-47,14.46-9.45,6.41-20.47,9.81-31.86,9.81s-22.4-3.4-31.86-9.81c-13.94-9.46-30.19-14.46-47-14.46-10.43,0-20.64,1.93-30.21,5.65v37.26c9.57-3.72,19.78-5.65,30.21-5.65,16.81,0,33.06,5,47,14.46,9.46,6.42,20.47,9.81,31.86,9.81s22.41-3.39,31.86-9.81c13.94-9.45,30.2-14.46,47-14.46,10.51,0,20.81,1.95,30.46,5.73v-37.26c-9.65-3.77-19.94-5.73-30.46-5.73"/>
          <path class="cls-1" d="M202.69,276.33c-16.81,0-33.06,5-47,14.46-9.45,6.42-20.47,9.81-31.86,9.81s-22.4-3.39-31.86-9.81c-13.94-9.46-30.19-14.46-47-14.46-10.43,0-20.64,1.93-30.21,5.65v37.26c9.57-3.71,19.78-5.65,30.21-5.65,16.81,0,33.06,5,47,14.46,9.46,6.41,20.47,9.81,31.86,9.81s22.41-3.39,31.86-9.81c13.94-9.46,30.2-14.46,47-14.46,10.51,0,20.81,1.96,30.46,5.73v-37.26c-9.65-3.77-19.94-5.73-30.46-5.73"/>
        </g>
      </g>
    </g>
  </g>
</svg>